<svg width="175" height="32" viewBox="0 0 175 32" fill="none" xmlns="http://www.w3.org/2000/svg">
<path d="M13.3915 0.0449854C13.1001 -0.0149951 12.8002 -0.0149951 12.5089 0.0449854L1.63529 2.4185C0.692743 2.62415 0.0158208 3.46387 0.0158208 4.43213V16.2997C-0.129846 18.3305 0.667039 23.3431 5.07132 27.1476C9.26139 30.7721 11.892 31.629 12.8259 31.6119H13.083C14.0084 31.6204 16.6476 30.7636 20.8376 27.1476C25.2333 23.3431 26.0388 18.3305 25.8931 16.2997V4.43213C25.8931 3.46387 25.2162 2.62415 24.2737 2.4185L13.3915 0.0449854Z" fill="#155AF9"/>
<path d="M5.80212 14.063L9.97506 18.116C10.3778 18.5102 11.0204 18.5016 11.4232 18.1074L20.5145 9.01611" stroke="white" stroke-width="1.09444" stroke-linecap="round"/>
<path d="M13.3761 0.598095C13.095 0.540218 12.8056 0.540218 12.5245 0.598095L2.03234 2.88835C1.12285 3.08679 0.469673 3.89706 0.469673 4.83135V16.2826C0.329115 18.2422 1.09805 23.079 5.34784 26.75C9.39093 30.2474 11.9292 31.0742 12.8304 31.0577H13.0785C13.9714 31.066 16.518 30.2391 20.5611 26.75C24.8026 23.079 25.5798 18.2422 25.4393 16.2826V4.83135C25.4393 3.89706 24.7861 3.08679 23.8766 2.88835L13.3761 0.598095Z" fill="#2C70B8"/>
<path d="M6.05115 14.1243L10.0777 18.0351C10.4663 18.4154 11.0864 18.4072 11.475 18.0268C11.8636 17.6465 20.2474 9.25439 20.2474 9.25439" stroke="white" stroke-width="1.11" stroke-linecap="round"/>
<path d="M47.2357 31.4566C45.2478 31.4566 43.4569 31.131 41.8803 30.4884C40.3036 29.8457 39.0355 28.886 38.0758 27.6179C37.1418 26.3497 36.6534 24.8245 36.602 23.0422H43.6626C43.7654 24.0533 44.1167 24.8245 44.7079 25.3729C45.2992 25.887 46.0789 26.1526 47.0386 26.1526C47.9983 26.1526 48.7952 25.9299 49.3693 25.4929C49.9348 25.0301 50.2261 24.3961 50.2261 23.5906C50.2261 22.9137 49.9948 22.3653 49.5321 21.9197C49.0951 21.4827 48.5381 21.1228 47.8612 20.8315C47.2185 20.5487 46.2846 20.2231 45.0678 19.8633C43.3112 19.3234 41.8717 18.775 40.7664 18.2352C39.6524 17.6954 38.7013 16.8899 37.8959 15.8274C37.0904 14.7649 36.6962 13.3854 36.6962 11.6802C36.6962 9.14388 37.6131 7.16452 39.4468 5.74212C41.2805 4.29402 43.6711 3.57426 46.6187 3.57426C49.5663 3.57426 52.0341 4.30259 53.8678 5.74212C55.7015 7.16452 56.6869 9.15245 56.8154 11.7145H49.6435C49.5921 10.8319 49.2664 10.1464 48.6752 9.65799C48.084 9.14388 47.3214 8.87825 46.3874 8.87825C45.5819 8.87825 44.9393 9.10103 44.4509 9.53803C43.9625 9.94933 43.714 10.5577 43.714 11.3632C43.714 12.2457 44.1253 12.9312 44.9564 13.4196C45.7876 13.908 47.0729 14.4393 48.838 15.0134C50.5946 15.6046 52.017 16.1787 53.1052 16.7186C54.2191 17.2584 55.1702 18.0467 55.9757 19.0835C56.7726 20.1203 57.1753 21.4484 57.1753 23.0765C57.1753 24.7045 56.7726 26.0327 55.9757 27.3008C55.1959 28.569 54.0649 29.5715 52.5654 30.3256C51.0659 31.071 49.2922 31.4481 47.2528 31.4481L47.2357 31.4566ZM81.6474 20.0175C81.6474 20.6344 81.6045 21.2856 81.5274 21.954H66.5151C66.618 23.2993 67.0464 24.3361 67.7919 25.0559C68.5716 25.7499 69.5142 26.1012 70.6195 26.1012C72.2733 26.1012 73.4215 25.4072 74.0727 24.0105H81.1332C80.7734 25.4329 80.1136 26.7096 79.1539 27.8492C78.2199 28.9889 77.046 29.88 75.6236 30.5226C74.2012 31.1653 72.6074 31.4909 70.8509 31.4909C68.7344 31.4909 66.8407 31.0368 65.187 30.1371C63.5332 29.2288 62.2394 27.9435 61.3054 26.2555C60.3714 24.576 59.9087 22.6138 59.9087 20.3602C59.9087 18.1067 60.3628 16.1445 61.2625 14.465C62.1965 12.7856 63.4818 11.4917 65.1441 10.5834C66.7979 9.67513 68.7001 9.22956 70.8423 9.22956C72.9845 9.22956 74.801 9.66656 76.4291 10.5491C78.0571 11.4317 79.3253 12.6827 80.2335 14.3108C81.1675 15.9388 81.6302 17.8411 81.6302 20.0089L81.6474 20.0175ZM74.861 18.2695C74.861 17.1299 74.4754 16.2301 73.6957 15.5532C72.9159 14.8763 71.9477 14.5421 70.7909 14.5421C69.6341 14.5421 68.7344 14.8677 67.9632 15.5104C67.2178 16.153 66.7465 17.0784 66.5665 18.2609H74.861V18.2695ZM83.8238 20.3688C83.8238 18.1152 84.2779 16.153 85.1776 14.4736C86.1116 12.7941 87.3883 11.5003 89.0164 10.592C90.6701 9.6837 92.5552 9.23813 94.6803 9.23813C97.3965 9.23813 99.6587 9.94933 101.467 11.3717C103.3 12.7941 104.509 14.7992 105.074 17.3869H98.0135C97.4222 15.7332 96.2655 14.902 94.5603 14.902C93.3436 14.902 92.3753 15.3819 91.6555 16.333C90.9272 17.267 90.5673 18.6037 90.5673 20.3688C90.5673 22.1339 90.9272 23.4878 91.6555 24.4389C92.3839 25.3729 93.3521 25.8356 94.5603 25.8356C96.2655 25.8356 97.4137 25.0044 98.0135 23.3507H105.074C104.509 25.887 103.3 27.8749 101.467 29.323C99.6329 30.7711 97.3708 31.4909 94.6803 31.4909C92.5638 31.4909 90.6701 31.0368 89.0164 30.1371C87.3883 29.2288 86.1116 27.9435 85.1776 26.2555C84.2694 24.576 83.8238 22.6138 83.8238 20.3602V20.3688ZM129.992 9.5466V31.191H123.36V28.2434C122.683 29.2031 121.766 29.9743 120.609 30.5741C119.469 31.1396 118.201 31.4309 116.805 31.4309C115.151 31.4309 113.686 31.071 112.426 30.3427C111.158 29.5972 110.172 28.5176 109.478 27.1209C108.784 25.7242 108.433 24.079 108.433 22.1939V9.55517H115.022V21.3028C115.022 22.7509 115.399 23.8734 116.145 24.6788C116.89 25.4757 117.901 25.8784 119.169 25.8784C120.438 25.8784 121.483 25.4757 122.237 24.6788C122.982 23.8819 123.36 22.7509 123.36 21.3028V9.55517H129.992V9.5466ZM141.388 13.154C142.168 11.963 143.136 11.0375 144.293 10.3606C145.458 9.66656 146.752 9.31525 148.174 9.31525V16.333H146.349C144.695 16.333 143.453 16.6929 142.622 17.4212C141.791 18.1152 141.379 19.3577 141.379 21.1485V31.191H134.747V9.5466H141.379V13.154H141.388ZM154.686 7.30162C153.521 7.30162 152.57 6.96744 151.816 6.29052C151.088 5.59646 150.728 4.73959 150.728 3.72849C150.728 2.71739 151.088 1.84339 151.816 1.16647C152.561 0.472406 153.521 0.121094 154.686 0.121094C155.852 0.121094 156.752 0.472406 157.48 1.16647C158.225 1.84339 158.602 2.69169 158.602 3.72849C158.602 4.7653 158.225 5.58789 157.48 6.29052C156.752 6.96744 155.826 7.30162 154.686 7.30162ZM157.977 9.5466V31.191H151.345V9.5466H157.977ZM174.848 25.5614V31.1824H171.472C169.065 31.1824 167.197 30.5998 165.851 29.4344C164.506 28.2434 163.838 26.3154 163.838 23.6592V15.0477H161.199V9.53803H163.838V4.25975H170.47V9.53803H174.814V15.0477H170.47V23.7363C170.47 24.3789 170.624 24.8502 170.933 25.133C171.241 25.4157 171.764 25.5614 172.484 25.5614H174.848Z" fill="white"/>
</svg>
