<svg width="131" height="24" viewBox="0 0 131 24" fill="none" xmlns="http://www.w3.org/2000/svg">
<path d="M10.0221 0.0336668C9.80407 -0.0112223 9.57963 -0.0112223 9.36159 0.0336668L1.22384 1.80999C0.518445 1.9639 0.0118402 2.59234 0.0118402 3.31698V12.1986C-0.0971761 13.7184 0.499208 17.4699 3.79535 20.3171C6.93117 23.0297 8.89987 23.671 9.59886 23.6581H9.79124C10.4838 23.6646 12.4589 23.0233 15.5948 20.3171C18.8845 17.4699 19.4873 13.7184 19.3783 12.1986V3.31698C19.3783 2.59234 18.8717 1.9639 18.1663 1.80999L10.0221 0.0336668Z" fill="#2C70B8"/>
<path d="M4.34082 10.5248L7.46382 13.558C7.76522 13.853 8.24617 13.8466 8.54757 13.5516C8.84896 13.2566 15.3515 6.74768 15.3515 6.74768" stroke="white" stroke-width="1.11" stroke-linecap="round"/>
<path d="M35.3483 23.542C33.8606 23.542 32.5203 23.2983 31.3404 22.8174C30.1604 22.3364 29.2114 21.6182 28.4931 20.6691C27.7941 19.72 27.4286 18.5786 27.3901 17.2447H32.6742C32.7512 18.0014 33.0141 18.5786 33.4566 18.989C33.8991 19.3737 34.4826 19.5725 35.2008 19.5725C35.9191 19.5725 36.5154 19.4058 36.9451 19.0788C37.3683 18.7325 37.5864 18.2579 37.5864 17.6551C37.5864 17.1485 37.4132 16.7381 37.0669 16.4046C36.7399 16.0776 36.3231 15.8083 35.8165 15.5902C35.3355 15.3786 34.6365 15.1349 33.7259 14.8656C32.4113 14.4616 31.334 14.0512 30.5067 13.6472C29.6731 13.2432 28.9613 12.6404 28.3585 11.8452C27.7557 11.05 27.4607 10.0176 27.4607 8.74144C27.4607 6.84327 28.1468 5.36193 29.5192 4.29742C30.8915 3.21367 32.6806 2.675 34.8866 2.675C37.0926 2.675 38.9395 3.22008 40.3118 4.29742C41.6841 5.36193 42.4216 6.84968 42.5178 8.76709H37.1503C37.1118 8.10658 36.8681 7.59356 36.4257 7.22803C35.9832 6.84327 35.4125 6.64448 34.7135 6.64448C34.1107 6.64448 33.6297 6.81121 33.2642 7.13826C32.8987 7.44607 32.7127 7.90137 32.7127 8.50417C32.7127 9.16468 33.0205 9.6777 33.6425 10.0432C34.2646 10.4087 35.2265 10.8063 36.5475 11.236C37.8621 11.6785 38.9266 12.1081 39.741 12.5121C40.5747 12.9161 41.2865 13.5061 41.8893 14.282C42.4857 15.058 42.7871 16.0519 42.7871 17.2704C42.7871 18.4888 42.4857 19.4828 41.8893 20.4318C41.3057 21.3809 40.4593 22.1312 39.337 22.6955C38.2148 23.2534 36.8874 23.5356 35.3612 23.5356L35.3483 23.542ZM61.1018 14.981C61.1018 15.4427 61.0698 15.9301 61.0121 16.4303H49.777C49.8539 17.4371 50.1745 18.213 50.7325 18.7517C51.316 19.2711 52.0214 19.5341 52.8487 19.5341C54.0863 19.5341 54.9456 19.0146 55.433 17.9693H60.7171C60.4477 19.0339 59.9539 19.9894 59.2357 20.8422C58.5367 21.6951 57.6582 22.3621 56.5937 22.843C55.5292 23.324 54.3364 23.5677 53.0218 23.5677C51.4379 23.5677 50.0206 23.2278 48.783 22.5545C47.5453 21.8747 46.577 20.9128 45.878 19.6495C45.179 18.3926 44.8327 16.9241 44.8327 15.2375C44.8327 13.551 45.1726 12.0825 45.846 10.8256C46.5449 9.56868 47.5069 8.60036 48.7509 7.92061C49.9886 7.24086 51.4122 6.9074 53.0154 6.9074C54.6186 6.9074 55.9781 7.23445 57.1965 7.89496C58.4149 8.55547 59.364 9.49173 60.0437 10.7101C60.7427 11.9286 61.089 13.3522 61.089 14.9746L61.1018 14.981ZM56.023 13.6728C56.023 12.8199 55.7344 12.1466 55.1508 11.64C54.5673 11.1334 53.8426 10.8833 52.9769 10.8833C52.1112 10.8833 51.4379 11.127 50.8607 11.6079C50.3028 12.0889 49.9501 12.7815 49.8154 13.6664H56.023V13.6728ZM62.7307 15.2439C62.7307 13.5574 63.0705 12.0889 63.7439 10.832C64.4429 9.57509 65.3984 8.60677 66.6168 7.92702C67.8544 7.24727 69.2652 6.91381 70.8556 6.91381C72.8884 6.91381 74.5814 7.44607 75.9345 8.51058C77.3068 9.57509 78.211 11.0757 78.6342 13.0123H73.3501C72.9077 11.7747 72.0419 11.1526 70.7658 11.1526C69.8552 11.1526 69.1306 11.5117 68.5919 12.2235C68.0468 12.9225 67.7775 13.9229 67.7775 15.2439C67.7775 16.565 68.0468 17.5782 68.5919 18.29C69.137 18.989 69.8616 19.3353 70.7658 19.3353C72.0419 19.3353 72.9012 18.7132 73.3501 17.4756H78.6342C78.211 19.3737 77.3068 20.8615 75.9345 21.9452C74.5621 23.029 72.8692 23.5677 70.8556 23.5677C69.2716 23.5677 67.8544 23.2278 66.6168 22.5545C65.3984 21.8747 64.4429 20.9128 63.7439 19.6495C63.0641 18.3926 62.7307 16.9241 62.7307 15.2375V15.2439ZM97.2824 7.14467V23.3432H92.319V21.1372C91.8124 21.8555 91.1262 22.4326 90.2605 22.8815C89.4076 23.3047 88.4585 23.5228 87.4132 23.5228C86.1756 23.5228 85.079 23.2534 84.1363 22.7084C83.1872 22.1504 82.4498 21.3424 81.9304 20.2972C81.4109 19.2519 81.148 18.0207 81.148 16.6099V7.15108H86.0794V15.9429C86.0794 17.0267 86.3615 17.8667 86.9195 18.4695C87.4774 19.0659 88.2341 19.3673 89.1831 19.3673C90.1322 19.3673 90.9146 19.0659 91.4789 18.4695C92.0368 17.8732 92.319 17.0267 92.319 15.9429V7.15108H97.2824V7.14467ZM105.811 9.84443C106.395 8.95306 107.12 8.26049 107.985 7.75388C108.857 7.23445 109.826 6.97153 110.89 6.97153V12.2235H109.524C108.287 12.2235 107.357 12.4929 106.735 13.038C106.113 13.5574 105.805 14.4872 105.805 15.8275V23.3432H100.841V7.14467H105.805V9.84443H105.811ZM115.764 5.46454C114.892 5.46454 114.18 5.21444 113.616 4.70784C113.071 4.18841 112.801 3.54713 112.801 2.79043C112.801 2.03373 113.071 1.37963 113.616 0.873024C114.174 0.353593 114.892 0.0906734 115.764 0.0906734C116.636 0.0906734 117.309 0.353593 117.854 0.873024C118.412 1.37963 118.695 2.01449 118.695 2.79043C118.695 3.56637 118.412 4.18199 117.854 4.70784C117.309 5.21444 116.617 5.46454 115.764 5.46454ZM118.226 7.14467V23.3432H113.263V7.14467H118.226ZM130.853 19.1301V23.3368H128.326C126.524 23.3368 125.126 22.9007 124.12 22.0286C123.113 21.1372 122.613 19.6944 122.613 17.7064V11.2616H120.638V7.13826H122.613V3.18802H127.576V7.13826H130.827V11.2616H127.576V17.7641C127.576 18.2451 127.692 18.5978 127.922 18.8094C128.153 19.021 128.544 19.1301 129.083 19.1301H130.853Z" fill="#1D2859"/>
</svg>
