<svg width="108" height="48" viewBox="0 0 108 48" fill="none" xmlns="http://www.w3.org/2000/svg">
<path d="M8.30718 47.9732C6.75418 47.9732 5.35515 47.719 4.12347 47.2171C2.89178 46.7152 1.90108 45.9658 1.15136 44.9754C0.421718 43.9851 0.0401636 42.794 0 41.4022H5.51581C5.59613 42.1918 5.87058 42.794 6.33247 43.2223C6.79435 43.6238 7.4035 43.8312 8.15322 43.8312C8.90294 43.8312 9.52547 43.6572 9.97397 43.3159C10.4158 42.9546 10.6434 42.4594 10.6434 41.8304C10.6434 41.3018 10.4626 40.8735 10.1012 40.5256C9.75976 40.1843 9.32466 39.9033 8.79584 39.6758C8.29379 39.4549 7.56415 39.2007 6.61361 38.9196C5.24135 38.498 4.11677 38.0698 3.25325 37.6482C2.38304 37.2267 1.64001 36.5976 1.01078 35.7679C0.381554 34.9381 0.0736333 33.8608 0.0736333 32.5292C0.0736333 30.5485 0.789885 29.0028 2.22239 27.892C3.65489 26.7611 5.5225 26.199 7.82521 26.199C10.1279 26.199 12.0558 26.7678 13.4883 27.892C14.9208 29.0028 15.6906 30.5552 15.791 32.556H10.1882C10.148 31.8667 9.89364 31.3314 9.43176 30.95C8.96988 30.5485 8.37412 30.3411 7.64448 30.3411C7.01525 30.3411 6.5132 30.515 6.13165 30.8563C5.75009 31.1775 5.55597 31.6526 5.55597 32.2816C5.55597 32.9708 5.87728 33.5062 6.52659 33.8876C7.1759 34.269 8.17999 34.6839 9.55894 35.1322C10.9312 35.5939 12.0424 36.0422 12.8925 36.4638C13.7627 36.8854 14.5058 37.501 15.135 38.3107C15.7575 39.1204 16.0721 40.1575 16.0721 41.4289C16.0721 42.7003 15.7575 43.7375 15.135 44.7279C14.5258 45.7182 13.6422 46.5011 12.4708 47.09C11.2994 47.6721 9.91372 47.9666 8.32057 47.9666L8.30718 47.9732ZM35.19 39.0401C35.19 39.5218 35.1566 40.0304 35.0963 40.5523H23.3685C23.4489 41.6029 23.7836 42.4126 24.3659 42.9747C24.9751 43.5167 25.7114 43.791 26.5749 43.791C27.8669 43.791 28.7639 43.249 29.2726 42.1583H34.7884C34.5073 43.2691 33.9918 44.2661 33.2421 45.1561C32.5125 46.0461 31.5954 46.742 30.4842 47.2439C29.373 47.7457 28.1279 48 26.7557 48C25.1023 48 23.6229 47.6454 22.331 46.9428C21.039 46.2335 20.0283 45.2297 19.2986 43.9115C18.569 42.5999 18.2075 41.0676 18.2075 39.3077C18.2075 37.5478 18.5623 36.0155 19.2652 34.7039C19.9948 33.3924 20.9989 32.382 22.2975 31.6727C23.5894 30.9634 25.0755 30.6154 26.749 30.6154C28.4225 30.6154 29.8416 30.9567 31.1134 31.6459C32.3853 32.3351 33.376 33.3121 34.0855 34.5835C34.8152 35.8549 35.1766 37.3404 35.1766 39.0334L35.19 39.0401ZM29.8884 37.675C29.8884 36.785 29.5872 36.0824 28.9781 35.5538C28.3689 35.0251 27.6125 34.7642 26.7088 34.7642C25.8051 34.7642 25.1023 35.0184 24.4998 35.5203C23.9174 36.0222 23.5493 36.7449 23.4087 37.6683H29.8884V37.675ZM36.8903 39.3144C36.8903 37.5545 37.2451 36.0222 37.9479 34.7106C38.6776 33.3991 39.675 32.3887 40.9468 31.6794C42.2388 30.9701 43.7114 30.6221 45.3715 30.6221C47.4935 30.6221 49.2607 31.1775 50.6731 32.2883C52.1056 33.3991 53.0495 34.9649 53.4913 36.9858H47.9755C47.5136 35.6943 46.6099 35.0452 45.2778 35.0452C44.3273 35.0452 43.5708 35.4199 43.0086 36.1627C42.4396 36.8921 42.1584 37.936 42.1584 39.3144C42.1584 40.6929 42.4396 41.7501 43.0086 42.4929C43.5775 43.2223 44.334 43.5836 45.2778 43.5836C46.6099 43.5836 47.5069 42.9345 47.9755 41.6431H53.4913C53.0495 43.6238 52.1056 45.1762 50.6731 46.3071C49.2406 47.4379 47.4734 48 45.3715 48C43.7181 48 42.2388 47.6454 40.9468 46.9428C39.675 46.2335 38.6776 45.2297 37.9479 43.9115C37.2384 42.5999 36.8903 41.0676 36.8903 39.3077V39.3144ZM72.9572 30.863V47.7658H67.7761V45.4639C67.2473 46.2134 66.5311 46.8156 65.6274 47.284C64.7371 47.7257 63.7464 47.9532 62.6553 47.9532C61.3633 47.9532 60.2187 47.6721 59.2347 47.1034C58.244 46.5212 57.4742 45.6781 56.9319 44.5873C56.3897 43.4966 56.1153 42.2118 56.1153 40.7397V30.8697H61.2629V40.0438C61.2629 41.1747 61.5575 42.0512 62.1398 42.6802C62.7222 43.3026 63.5121 43.6171 64.5028 43.6171C65.4935 43.6171 66.3102 43.3026 66.8992 42.6802C67.4816 42.0579 67.7761 41.1747 67.7761 40.0438V30.8697H72.9572V30.863ZM81.8602 33.6801C82.4693 32.75 83.2257 32.0273 84.1294 31.4987C85.0398 30.9567 86.0506 30.6823 87.1618 30.6823V36.1627H85.736C84.444 36.1627 83.4734 36.4437 82.8241 37.0125C82.1748 37.5545 81.8535 38.5248 81.8535 39.9233V47.7658H76.6724V30.863H81.8535V33.6801H81.8602ZM92.2492 29.1098C91.3388 29.1098 90.5958 28.8489 90.0067 28.3202C89.4377 27.7782 89.1566 27.1091 89.1566 26.3195C89.1566 25.5299 89.4377 24.8473 90.0067 24.3187C90.5891 23.7767 91.3388 23.5023 92.2492 23.5023C93.1595 23.5023 93.8624 23.7767 94.4314 24.3187C95.0138 24.8473 95.3083 25.5098 95.3083 26.3195C95.3083 27.1291 95.0138 27.7715 94.4314 28.3202C93.8624 28.8489 93.1395 29.1098 92.2492 29.1098ZM94.8196 30.863V47.7658H89.6385V30.863H94.8196ZM108 43.3695V47.7591H105.363C103.482 47.7591 102.022 47.3041 100.971 46.394C99.9204 45.4639 99.3983 43.9583 99.3983 41.884V35.159H97.3366V30.8563H99.3983V26.7343H104.579V30.8563H107.973V35.159H104.579V41.9442C104.579 42.446 104.7 42.8141 104.941 43.0349C105.182 43.2557 105.59 43.3695 106.152 43.3695H108Z" fill="#1D2859"/>
<path d="M53.7617 0.523438C53.9213 0.491168 54.0856 0.491652 54.2451 0.524414L62.7412 2.37695C63.2476 2.48742 63.6132 2.93984 63.6133 3.46094V12.7471L63.6143 12.7646C63.7189 14.2233 63.1296 17.9726 59.8359 20.8223C58.2231 22.2135 56.9224 23.062 55.9502 23.5596C54.9626 24.065 54.3525 24.1886 54.1104 24.1865H53.8955C53.6529 24.191 53.0447 24.0709 52.0576 23.5654C51.0865 23.068 49.7871 22.2173 48.1738 20.8223H48.1729C44.8734 17.9731 44.2908 14.2238 44.3955 12.7646L44.3975 12.7471V3.46094C44.3976 2.9399 44.7623 2.48748 45.2686 2.37695L53.7617 0.523438Z" fill="#2C70B8" stroke="#E2E2E2"/>
<path d="M48.416 10.9824L51.676 14.1475C51.9906 14.4553 52.4926 14.4486 52.8072 14.1408C53.1219 13.833 59.9095 7.04108 59.9095 7.04108" stroke="white" stroke-width="1.11" stroke-linecap="round"/>
</svg>
