<svg width="151" height="40" viewBox="0 0 151 40" fill="none" xmlns="http://www.w3.org/2000/svg">
<path d="M14.8232 7.71582C14.9799 7.68357 15.1412 7.68267 15.2979 7.71484L24.585 9.74121C25.0718 9.8475 25.4237 10.2831 25.4238 10.7852V20.9463L25.4258 20.9707C25.5376 22.5291 24.9053 26.5817 21.3457 29.6631C19.5888 31.1793 18.1758 32.1007 17.125 32.6387C16.0526 33.1877 15.4105 33.3107 15.1807 33.3086H14.9424C14.7126 33.3128 14.0726 33.1936 13.001 32.6445C11.9517 32.1069 10.5411 31.1839 8.78418 29.6641L8.7832 29.6631C5.21691 26.5822 4.59127 22.53 4.70312 20.9707L4.70508 20.9463V10.7852C4.70524 10.2831 5.05712 9.8475 5.54395 9.74121L14.8223 7.71484L14.8232 7.71582Z" fill="#2C70B8" stroke="#E2E2E2" stroke-width="1.38305"/>
<path d="M8.95117 19.0118L12.5153 22.4735C12.8593 22.8101 13.4081 22.8028 13.7521 22.4662C14.0961 22.1295 21.517 14.7012 21.517 14.7012" stroke="white" stroke-width="1.53519" stroke-linecap="round"/>
<path d="M40.4899 33.4955C38.8392 33.4955 37.3521 33.2252 36.043 32.6915C34.7338 32.1579 33.6808 31.361 32.8839 30.308C32.1084 29.255 31.7028 27.9885 31.6602 26.5086H37.5229C37.6083 27.3482 37.9 27.9885 38.3909 28.4439C38.8819 28.8708 39.5293 29.0913 40.3262 29.0913C41.1231 29.0913 41.7848 28.9064 42.2615 28.5435C42.7311 28.1593 42.973 27.6328 42.973 26.964C42.973 26.4019 42.7809 25.9465 42.3967 25.5765C42.0338 25.2137 41.5713 24.9148 41.0092 24.6729C40.4756 24.4381 39.7001 24.1678 38.6898 23.8689C37.2312 23.4207 36.0359 22.9653 35.118 22.5171C34.1931 22.0689 33.4033 21.4 32.7345 20.5178C32.0657 19.6355 31.7384 18.49 31.7384 17.0741C31.7384 14.9681 32.4997 13.3245 34.0223 12.1434C35.5449 10.941 37.53 10.3434 39.9776 10.3434C42.4251 10.3434 44.4742 10.9481 45.9968 12.1434C47.5195 13.3245 48.3377 14.9752 48.4444 17.1026H42.4892C42.4465 16.3698 42.1761 15.8006 41.6852 15.395C41.1942 14.9681 40.561 14.7475 39.7855 14.7475C39.1167 14.7475 38.583 14.9325 38.1775 15.2954C37.7719 15.6369 37.5656 16.1421 37.5656 16.8109C37.5656 17.5437 37.9071 18.1129 38.5973 18.5185C39.2874 18.924 40.3547 19.3652 41.8204 19.8419C43.2789 20.3328 44.46 20.8095 45.3636 21.2577C46.2886 21.706 47.0783 22.3606 47.7471 23.2215C48.4088 24.0824 48.7432 25.1852 48.7432 26.5371C48.7432 27.8889 48.4088 28.9917 47.7471 30.0448C47.0997 31.0978 46.1605 31.9302 44.9154 32.5563C43.6702 33.1753 42.1974 33.4884 40.5041 33.4884L40.4899 33.4955ZM69.0636 23.997C69.0636 24.5093 69.0281 25.05 68.964 25.605H56.4986C56.5839 26.7221 56.9397 27.583 57.5587 28.1806C58.2062 28.7569 58.9888 29.0487 59.9066 29.0487C61.2798 29.0487 62.2332 28.4723 62.774 27.3126H68.6367C68.3379 28.4937 67.79 29.5538 66.9932 30.5001C66.2176 31.4464 65.2429 32.1864 64.0618 32.72C62.8807 33.2536 61.5573 33.524 60.0987 33.524C58.3413 33.524 56.7689 33.1469 55.3957 32.3998C54.0226 31.6456 52.9482 30.5784 52.1727 29.1767C51.3971 27.7822 51.0129 26.1529 51.0129 24.2816C51.0129 22.4104 51.39 20.781 52.1371 19.3865C52.9126 17.992 53.9799 16.9176 55.3602 16.1634C56.7334 15.4092 58.3129 15.0392 60.0916 15.0392C61.8704 15.0392 63.3788 15.4021 64.7306 16.135C66.0825 16.8678 67.1355 17.9066 67.8897 19.2584C68.6652 20.6103 69.0494 22.1898 69.0494 23.9899L69.0636 23.997ZM63.4286 22.5456C63.4286 21.5993 63.1084 20.8522 62.4609 20.2901C61.8135 19.728 61.0095 19.4505 60.0489 19.4505C59.0884 19.4505 58.3413 19.7209 57.701 20.2545C57.082 20.7882 56.6907 21.5566 56.5413 22.5384H63.4286V22.5456ZM70.8708 24.2887C70.8708 22.4175 71.2479 20.7882 71.995 19.3936C72.7705 17.9991 73.8307 16.9247 75.1825 16.1705C76.5557 15.4163 78.121 15.0464 79.8855 15.0464C82.141 15.0464 84.0193 15.6369 85.5206 16.818C87.0432 17.9991 88.0464 19.664 88.516 21.8127H82.6532C82.1623 20.4395 81.2018 19.7494 79.7859 19.7494C78.7756 19.7494 77.9716 20.1478 77.3739 20.9376C76.7692 21.7131 76.4703 22.823 76.4703 24.2887C76.4703 25.7544 76.7692 26.8786 77.3739 27.6683C77.9787 28.4439 78.7827 28.8281 79.7859 28.8281C81.2018 28.8281 82.1552 28.1379 82.6532 26.7647H88.516C88.0464 28.8708 87.0432 30.5215 85.5206 31.7239C83.998 32.9263 82.1196 33.524 79.8855 33.524C78.1281 33.524 76.5557 33.1469 75.1825 32.3998C73.8307 31.6456 72.7705 30.5784 71.995 29.1767C71.2408 27.7822 70.8708 26.1529 70.8708 24.2816V24.2887ZM109.206 15.3025V33.275H103.699V30.8274C103.137 31.6243 102.376 32.2646 101.415 32.7627C100.469 33.2323 99.4162 33.4742 98.2564 33.4742C96.8832 33.4742 95.6666 33.1753 94.6207 32.5706C93.5676 31.9516 92.7494 31.0551 92.1731 29.8953C91.5968 28.7356 91.3051 27.3695 91.3051 25.8042V15.3096H96.7765V25.0643C96.7765 26.2667 97.0896 27.1988 97.7086 27.8676C98.3276 28.5293 99.1671 28.8637 100.22 28.8637C101.273 28.8637 102.141 28.5293 102.767 27.8676C103.386 27.2059 103.699 26.2667 103.699 25.0643V15.3096H109.206V15.3025ZM118.669 18.2979C119.317 17.3089 120.121 16.5405 121.081 15.9784C122.049 15.4021 123.123 15.1104 124.304 15.1104V20.9376H122.789C121.416 20.9376 120.384 21.2364 119.694 21.8412C119.004 22.4175 118.662 23.4492 118.662 24.9362V33.275H113.155V15.3025H118.662V18.2979H118.669ZM129.712 13.4384C128.744 13.4384 127.954 13.1609 127.328 12.5988C126.723 12.0225 126.425 11.311 126.425 10.4714C126.425 9.63186 126.723 8.90613 127.328 8.34405C127.947 7.76773 128.744 7.47602 129.712 7.47602C130.679 7.47602 131.426 7.76773 132.031 8.34405C132.65 8.90613 132.963 9.61052 132.963 10.4714C132.963 11.3323 132.65 12.0154 132.031 12.5988C131.426 13.1609 130.658 13.4384 129.712 13.4384ZM132.444 15.3025V33.275H126.937V15.3025H132.444ZM146.453 28.6004V33.2678H143.65C141.651 33.2678 140.1 32.784 138.983 31.8164C137.866 30.8274 137.311 29.2265 137.311 27.0209V19.8703H135.119V15.2954H137.311V10.9126H142.818V15.2954H146.425V19.8703H142.818V27.0849C142.818 27.6185 142.946 28.0099 143.202 28.2447C143.458 28.4795 143.892 28.6004 144.49 28.6004H146.453Z" fill="#1D2859"/>
</svg>
