<svg width="40" height="40" viewBox="0 0 40 40" fill="none" xmlns="http://www.w3.org/2000/svg">
<path fill-rule="evenodd" clip-rule="evenodd" d="M3.75 8.75C3.75 7.42392 4.27678 6.15215 5.21447 5.21447C6.15215 4.27678 7.42392 3.75 8.75 3.75H31.25C32.5761 3.75 33.8479 4.27678 34.7855 5.21447C35.7232 6.15215 36.25 7.42392 36.25 8.75V25C36.25 26.3261 35.7232 27.5979 34.7855 28.5355C33.8479 29.4732 32.5761 30 31.25 30H26.25V30.4283C26.25 31.4233 26.645 32.3783 27.3483 33.08L28.3833 34.1167C28.5579 34.2915 28.6768 34.5141 28.7249 34.7564C28.7731 34.9988 28.7483 35.2499 28.6538 35.4782C28.5593 35.7065 28.3992 35.9016 28.1939 36.039C27.9885 36.1764 27.7471 36.2498 27.5 36.25H12.5C12.2529 36.2498 12.0115 36.1764 11.8061 36.039C11.6008 35.9016 11.4407 35.7065 11.3462 35.4782C11.2517 35.2499 11.2269 34.9988 11.2751 34.7564C11.3232 34.5141 11.4421 34.2915 11.6167 34.1167L12.6517 33.08C13.3545 32.3771 13.7496 31.424 13.75 30.43V30H8.75C7.42392 30 6.15215 29.4732 5.21447 28.5355C4.27678 27.5979 3.75 26.3261 3.75 25V8.75ZM6.25 8.75V21.25C6.25 21.913 6.51339 22.5489 6.98223 23.0178C7.45107 23.4866 8.08696 23.75 8.75 23.75H31.25C31.913 23.75 32.5489 23.4866 33.0178 23.0178C33.4866 22.5489 33.75 21.913 33.75 21.25V8.75C33.75 8.08696 33.4866 7.45107 33.0178 6.98223C32.5489 6.51339 31.913 6.25 31.25 6.25H8.75C8.08696 6.25 7.45107 6.51339 6.98223 6.98223C6.51339 7.45107 6.25 8.08696 6.25 8.75Z" fill="#0070CE"/>
</svg>
