<svg width="40" height="40" viewBox="0 0 40 40" fill="none" xmlns="http://www.w3.org/2000/svg">
<path d="M16.665 16.6675V8.33415C16.665 7.89212 16.8406 7.4682 17.1532 7.15564C17.4658 6.84308 17.8897 6.66748 18.3317 6.66748H21.665C22.1071 6.66748 22.531 6.84308 22.8436 7.15564C23.1561 7.4682 23.3317 7.89212 23.3317 8.33415V16.6675" stroke="#0070CE" stroke-width="2" stroke-linecap="round" stroke-linejoin="round"/>
<path d="M23.335 10C25.9871 10 28.5307 11.0536 30.406 12.9289C32.2814 14.8043 33.335 17.3478 33.335 20V25" stroke="#0070CE" stroke-width="2" stroke-linecap="round" stroke-linejoin="round"/>
<path d="M6.66504 25V20C6.66504 17.3478 7.71861 14.8043 9.59397 12.9289C11.4693 11.0536 14.0129 10 16.665 10" stroke="#0070CE" stroke-width="2" stroke-linecap="round" stroke-linejoin="round"/>
<path d="M35.0016 25H5.00163C4.08115 25 3.33496 25.7462 3.33496 26.6667V30C3.33496 30.9205 4.08115 31.6667 5.00163 31.6667H35.0016C35.9221 31.6667 36.6683 30.9205 36.6683 30V26.6667C36.6683 25.7462 35.9221 25 35.0016 25Z" stroke="#0070CE" stroke-width="2" stroke-linecap="round" stroke-linejoin="round"/>
</svg>
