<svg width="40" height="40" viewBox="0 0 40 40" fill="none" xmlns="http://www.w3.org/2000/svg">
<path fill-rule="evenodd" clip-rule="evenodd" d="M28.8383 8.66154C26.4858 6.35857 23.3197 5.07667 20.0276 5.0942C16.7355 5.11173 13.5832 6.42729 11.2553 8.75519C8.92742 11.0831 7.61186 14.2354 7.59433 17.5274C7.57679 20.8195 8.8587 23.9856 11.1617 26.3382C11.3962 26.5727 11.5279 26.8907 11.5279 27.2224C11.5279 27.554 11.3962 27.872 11.1617 28.1065C10.9272 28.341 10.6091 28.4728 10.2775 28.4728C9.94587 28.4728 9.62783 28.341 9.39333 28.1065C7.64909 26.3623 6.36193 24.2148 5.64588 21.8542C4.92983 19.4937 4.80698 16.993 5.28823 14.5736C5.76947 12.1543 6.83996 9.89092 8.40485 7.9841C9.96974 6.07727 11.9807 4.58581 14.2597 3.64182C16.5387 2.69783 19.0153 2.33045 21.4702 2.57223C23.9251 2.814 26.2825 3.65747 28.3335 5.02792C30.3845 6.39836 32.0659 8.25349 33.2288 10.429C34.3916 12.6044 35 15.0331 35 17.4999C35 17.8314 34.8683 18.1493 34.6339 18.3838C34.3995 18.6182 34.0815 18.7499 33.75 18.7499C33.4185 18.7499 33.1005 18.6182 32.8661 18.3838C32.6317 18.1493 32.5 17.8314 32.5 17.4999C32.5 14.2999 31.28 11.1015 28.8383 8.66154ZM25.3033 12.1965C23.8968 10.79 21.9891 9.99983 20 9.99983C18.0109 9.99983 16.1032 10.79 14.6967 12.1965C13.2901 13.6031 12.5 15.5107 12.5 17.4999C12.5 19.489 13.2901 21.3967 14.6967 22.8032C14.8195 22.9176 14.918 23.0556 14.9863 23.209C15.0546 23.3623 15.0914 23.5278 15.0943 23.6957C15.0973 23.8635 15.0664 24.0302 15.0035 24.1859C14.9407 24.3415 14.8471 24.4829 14.7284 24.6016C14.6097 24.7203 14.4683 24.8139 14.3127 24.8767C14.157 24.9396 13.9903 24.9705 13.8225 24.9675C13.6546 24.9646 13.4891 24.9278 13.3358 24.8595C13.1824 24.7912 13.0444 24.6927 12.93 24.5699C11.7669 23.4071 10.9085 21.9754 10.4309 20.4016C9.95332 18.8278 9.87127 17.1605 10.192 15.5474C10.5128 13.9343 11.2265 12.4253 12.2698 11.1539C13.3132 9.88256 14.654 8.88816 16.1735 8.25882C17.6929 7.62949 19.3442 7.38463 20.9809 7.54597C22.6177 7.7073 24.1893 8.26983 25.5567 9.18372C26.9241 10.0976 28.045 11.3347 28.82 12.7853C29.5951 14.2358 30.0004 15.8552 30 17.4999C30 17.8314 29.8683 18.1493 29.6339 18.3838C29.3995 18.6182 29.0815 18.7499 28.75 18.7499C28.4185 18.7499 28.1005 18.6182 27.8661 18.3838C27.6317 18.1493 27.5 17.8314 27.5 17.4999C27.5 15.5782 26.7667 13.6615 25.3033 12.1965ZM19.2467 14.3865C19.5 14.3186 19.7684 14.3321 20.0137 14.4251C20.2589 14.5182 20.4687 14.686 20.6133 14.9049L29.3267 28.0999C29.463 28.3063 29.5351 28.5485 29.5337 28.7959C29.5323 29.0433 29.4575 29.2847 29.3189 29.4895C29.1802 29.6944 28.9839 29.8535 28.7548 29.9467C28.5256 30.0399 28.274 30.0631 28.0317 30.0132L24.5367 29.2965L26.2783 35.7965C26.3641 36.117 26.319 36.4584 26.1531 36.7457C25.9871 37.0329 25.7138 37.2425 25.3933 37.3282C25.0729 37.414 24.7315 37.3689 24.4442 37.2029C24.157 37.037 23.9474 36.7637 23.8617 36.4432L22.1217 29.9449L19.4533 32.3115C19.2684 32.476 19.0388 32.5818 18.7937 32.6157C18.5486 32.6495 18.2989 32.6099 18.0763 32.5017C17.8538 32.3936 17.6683 32.2218 17.5435 32.0081C17.4186 31.7945 17.36 31.5485 17.375 31.3015L18.3233 15.5182C18.3388 15.2563 18.4363 15.0059 18.6021 14.8025C18.7678 14.5991 18.9933 14.453 19.2467 14.3849V14.3865Z" fill="#0070CE"/>
</svg>
