<svg width="32" height="32" viewBox="0 0 32 32" fill="none" xmlns="http://www.w3.org/2000/svg">
<path d="M0 6C0 2.68629 2.68629 0 6 0H26C29.3137 0 32 2.68629 32 6V26C32 29.3137 29.3137 32 26 32H6C2.68629 32 0 29.3137 0 26V6Z" fill="#0070CE"/>
<path d="M18 8.1001L16 10.0001" stroke="white" stroke-width="1.5" stroke-linecap="round" stroke-linejoin="round"/>
<path d="M9.1002 12L6.2002 11.2" stroke="white" stroke-width="1.5" stroke-linecap="round" stroke-linejoin="round"/>
<path d="M9.99961 16L8.09961 18" stroke="white" stroke-width="1.5" stroke-linecap="round" stroke-linejoin="round"/>
<path d="M11.2002 6.19995L12.0002 9.09995" stroke="white" stroke-width="1.5" stroke-linecap="round" stroke-linejoin="round"/>
<path d="M13.0367 13.6899C12.9979 13.5986 12.9873 13.4977 13.0062 13.4003C13.0252 13.3029 13.0728 13.2133 13.1429 13.1432C13.2131 13.073 13.3026 13.0254 13.4001 13.0065C13.4975 12.9875 13.5983 12.9981 13.6897 13.0369L24.6897 17.5369C24.7876 17.5771 24.8702 17.6473 24.9257 17.7374C24.9811 17.8275 25.0066 17.9329 24.9984 18.0384C24.9902 18.1439 24.9487 18.244 24.8799 18.3245C24.8111 18.4049 24.7186 18.4614 24.6157 18.4859L20.2667 19.5269C20.0871 19.5698 19.923 19.6615 19.7924 19.792C19.6617 19.9224 19.5698 20.0864 19.5267 20.2659L18.4867 24.6159C18.4624 24.7192 18.406 24.8121 18.3254 24.8812C18.2449 24.9503 18.1445 24.9919 18.0387 25.0002C17.9329 25.0084 17.8273 24.9828 17.737 24.927C17.6468 24.8712 17.5766 24.7882 17.5367 24.6899L13.0367 13.6899Z" stroke="white" stroke-width="1.5" stroke-linecap="round" stroke-linejoin="round"/>
</svg>
