<svg width="50" height="83" viewBox="0 0 50 83" fill="none" xmlns="http://www.w3.org/2000/svg">
<path fill-rule="evenodd" clip-rule="evenodd" d="M27.7555 0.00361997C27.5171 0.0213034 27.287 0.0983723 27.0862 0.228056C26.8853 0.35774 26.7202 0.535794 26.606 0.745811L0.175449 49.3223C0.056492 49.5397 -0.00390226 49.7843 0.000195463 50.0321C0.00429318 50.2798 0.0727422 50.5223 0.198822 50.7356C0.324902 50.9489 0.50428 51.1256 0.719347 51.2486C0.934413 51.3716 1.17778 51.4367 1.42554 51.4373H25.4731L20.735 81.2114C20.684 81.5429 20.7512 81.8819 20.9249 82.1688C21.0986 82.4557 21.3677 82.6724 21.685 82.7809C22.0024 82.8894 22.3478 82.8826 22.6608 82.7621C22.9738 82.6415 23.2343 82.4147 23.3969 82.1214L49.8275 33.5449C49.9454 33.3273 50.0047 33.0829 49.9997 32.8354C49.9947 32.588 49.9255 32.346 49.799 32.1334C49.6724 31.9207 49.4928 31.7448 49.2777 31.6224C49.0626 31.5 48.8194 31.4356 48.572 31.4355H36.7854C36.5954 31.4317 36.4066 31.4658 36.2299 31.5359C36.0533 31.606 35.8925 31.7105 35.7568 31.8435C35.6211 31.9766 35.5133 32.1353 35.4397 32.3105C35.3661 32.4857 35.3282 32.674 35.3282 32.864C35.3282 33.0541 35.3661 33.242 35.4397 33.4172C35.5133 33.5924 35.6211 33.7512 35.7568 33.8842C35.8925 34.0172 36.0533 34.1221 36.2299 34.1922C36.4066 34.2623 36.5954 34.2964 36.7854 34.2926H46.1721L24.859 73.4652L28.5536 50.2319C28.5859 50.0279 28.5735 49.8193 28.5174 49.6205C28.4613 49.4217 28.3627 49.2373 28.2285 49.0803C28.0943 48.9233 27.9277 48.7973 27.7401 48.7109C27.5525 48.6245 27.3483 48.5797 27.1418 48.5798H3.83087L25.1436 9.40203L21.4494 32.6353C21.4163 32.8392 21.4279 33.0479 21.4833 33.247C21.5387 33.4461 21.6366 33.6307 21.7703 33.7883C21.904 33.9459 22.0703 34.0723 22.2577 34.1594C22.4451 34.2465 22.6491 34.292 22.8557 34.2926H26.7846C26.9746 34.2964 27.1634 34.2623 27.34 34.1922C27.5167 34.1221 27.6775 34.0172 27.8132 33.8842C27.9489 33.7512 28.0567 33.5924 28.1303 33.4172C28.2039 33.242 28.2418 33.0541 28.2418 32.864C28.2418 32.674 28.2039 32.4857 28.1303 32.3105C28.0567 32.1353 27.9489 31.9766 27.8132 31.8435C27.6775 31.7105 27.5167 31.606 27.34 31.5359C27.1634 31.4658 26.9746 31.4317 26.7846 31.4355H24.5299L29.2679 1.65524C29.3021 1.44258 29.2877 1.22504 29.2259 1.01873C29.1641 0.81241 29.0564 0.622673 28.911 0.463827C28.7655 0.304981 28.586 0.181159 28.386 0.101451C28.1859 0.0217435 27.9704 -0.0117013 27.7555 0.00361997Z" fill="black"/>
<path d="M33.2162 32.8627C33.2162 33.6515 32.5765 34.2912 31.7876 34.2912C30.9987 34.2912 30.3589 33.6515 30.3589 32.8627C30.3589 32.0738 30.9987 31.4341 31.7876 31.4341C32.5765 31.4341 33.2162 32.0738 33.2162 32.8627Z" fill="black"/>
</svg>
