<svg width="32" height="32" viewBox="0 0 32 32" fill="none" xmlns="http://www.w3.org/2000/svg">
<path d="M0 6C0 2.68629 2.68629 0 6 0H26C29.3137 0 32 2.68629 32 6V26C32 29.3137 29.3137 32 26 32H6C2.68629 32 0 29.3137 0 26V6Z" fill="#0070CE"/>
<path d="M18.3047 23.5299L19.2277 23.1479" stroke="white" stroke-width="1.5" stroke-linecap="round" stroke-linejoin="round"/>
<path d="M19.2277 20.852L18.3047 20.469" stroke="white" stroke-width="1.5" stroke-linecap="round" stroke-linejoin="round"/>
<path d="M20.8517 19.2279L20.4688 18.3049" stroke="white" stroke-width="1.5" stroke-linecap="round" stroke-linejoin="round"/>
<path d="M20.8517 24.772L20.4688 25.696" stroke="white" stroke-width="1.5" stroke-linecap="round" stroke-linejoin="round"/>
<path d="M23.1484 19.2279L23.5314 18.3049" stroke="white" stroke-width="1.5" stroke-linecap="round" stroke-linejoin="round"/>
<path d="M23.5304 25.696L23.1484 24.772" stroke="white" stroke-width="1.5" stroke-linecap="round" stroke-linejoin="round"/>
<path d="M6 11.8199C8.75011 9.36013 12.3103 8.00024 16 8.00024C19.6897 8.00024 23.2499 9.36013 26 11.8199" stroke="white" stroke-width="2" stroke-linecap="round" stroke-linejoin="round"/>
<path d="M24.7725 20.852L25.6965 20.469" stroke="white" stroke-width="1.5" stroke-linecap="round" stroke-linejoin="round"/>
<path d="M24.7725 23.1479L25.6965 23.5309" stroke="white" stroke-width="1.5" stroke-linecap="round" stroke-linejoin="round"/>
<path d="M9 15.858C10.4909 14.3977 12.4013 13.4404 14.4636 13.1203C16.5258 12.8002 18.6366 13.1333 20.5 14.073" stroke="white" stroke-width="2" stroke-linecap="round" stroke-linejoin="round"/>
<path d="M12.5 19.4289C13.1663 18.7756 14.0022 18.3218 14.913 18.1189" stroke="white" stroke-width="2" stroke-linecap="round" stroke-linejoin="round"/>
<path d="M22 25C23.6569 25 25 23.6569 25 22C25 20.3431 23.6569 19 22 19C20.3431 19 19 20.3431 19 22C19 23.6569 20.3431 25 22 25Z" stroke="white" stroke-width="1.5" stroke-linecap="round" stroke-linejoin="round"/>
</svg>
