<svg width="82" height="78" viewBox="0 0 82 78" fill="none" xmlns="http://www.w3.org/2000/svg">
<path d="M77.6767 0H4.33283C1.94263 0 0 1.92616 0 4.29609V56.7934C0 59.1633 1.94263 61.0895 4.33283 61.0895H31.1392V71.7872H27.0635C25.9589 71.7872 25.0637 72.6747 25.0637 73.77V76.0172C25.0637 77.1125 25.9589 78 27.0635 78H54.9364C56.0411 78 56.9362 77.1125 56.9362 76.0172V73.77C56.9362 72.6747 56.0411 71.7872 54.9364 71.7872H50.8607V61.0989H77.6671C80.0573 61.0989 82 59.1727 82 56.8028V4.30553C82.0095 1.92616 80.0573 0 77.6767 0ZM4.33283 1.98281H77.6671C78.9527 1.98281 80.0002 3.02143 80.0002 4.29609V48.0501H1.99977V4.29609C1.99977 3.02143 3.04726 1.98281 4.33283 1.98281ZM54.9364 76.0266H27.073V73.7794H54.946V76.0266H54.9364ZM48.861 71.7872H33.1485V61.0989H48.861V71.7872ZM77.6767 59.1161H4.33283C3.04726 59.1161 1.99977 58.0775 1.99977 56.8028V50.0424H80.0002V56.8028C80.0097 58.0775 78.9622 59.1161 77.6767 59.1161ZM5.33271 45.7368H76.6672C77.2196 45.7368 77.6671 45.2931 77.6671 44.7454V5.2875C77.6671 4.73986 77.2196 4.29609 76.6672 4.29609H5.33271C4.78039 4.29609 4.33283 4.73986 4.33283 5.2875V44.7454C4.33283 45.2931 4.78039 45.7368 5.33271 45.7368ZM6.3326 6.2789H75.6674V43.754H6.3326V6.2789ZM41.0047 51.7797C39.4525 51.7797 38.186 53.0355 38.186 54.5745C38.186 56.1135 39.4525 57.3693 41.0047 57.3693C42.5569 57.3693 43.8235 56.1135 43.8235 54.5745C43.8235 53.0355 42.5569 51.7797 41.0047 51.7797ZM41.0047 55.3865C40.5477 55.3865 40.1858 55.0183 40.1858 54.5745C40.1858 54.1213 40.5572 53.7625 41.0047 53.7625C41.4523 53.7625 41.8237 54.1307 41.8237 54.5745C41.8237 55.0277 41.4618 55.3865 41.0047 55.3865ZM41.4809 19.6582L30.0346 31.0074C29.8346 31.2057 29.587 31.3001 29.3299 31.3001C29.0728 31.3001 28.8157 31.2057 28.6252 31.0074C28.2348 30.6203 28.2348 29.9971 28.6252 29.61L40.0715 18.2607C40.462 17.8736 41.0904 17.8736 41.4904 18.2607C41.8904 18.6479 41.8713 19.271 41.4809 19.6582ZM26.9016 32.7164C27.2921 33.1035 27.2921 33.7267 26.9016 34.1232L25.0923 35.9172C24.9019 36.106 24.6447 36.2099 24.3876 36.2099C24.1305 36.2099 23.8734 36.1155 23.683 35.9172C23.2925 35.5301 23.2925 34.9069 23.683 34.5104L25.4923 32.7164C25.8732 32.3293 26.5112 32.3293 26.9016 32.7164ZM53.3938 19.035C53.7842 19.4221 53.7842 20.0453 53.3938 20.4324L41.9475 31.7816C41.7475 31.9799 41.4999 32.0743 41.2428 32.0743C40.9857 32.0743 40.7286 31.9799 40.5381 31.7816C40.1477 31.3945 40.1477 30.7713 40.5381 30.3842L51.9844 19.035C52.3653 18.6479 53.0033 18.6479 53.3938 19.035ZM58.3361 14.1252C58.7265 14.5123 58.7265 15.1355 58.3361 15.5226L56.5267 17.3165C56.3363 17.5148 56.0792 17.6092 55.8221 17.6092C55.5649 17.6092 55.3078 17.5148 55.1174 17.3165C54.727 16.9294 54.727 16.3063 55.1174 15.9191L56.9267 14.1252C57.3171 13.738 57.9456 13.738 58.3361 14.1252Z" fill="black"/>
</svg>
