<svg width="12" height="12" viewBox="0 0 12 12" fill="none" xmlns="http://www.w3.org/2000/svg">
<path d="M6 1.07812C6.80469 1.07812 7.33008 1.08008 7.57617 1.08398C7.82227 1.08789 8.10547 1.09766 8.42578 1.11328C8.71484 1.12891 8.94531 1.1582 9.11719 1.20117C9.28906 1.24414 9.42969 1.28516 9.53906 1.32422C9.67969 1.37891 9.80273 1.44141 9.9082 1.51172C10.0137 1.58203 10.1211 1.66797 10.2305 1.76953C10.332 1.87891 10.418 1.98633 10.4883 2.0918C10.5586 2.19727 10.6211 2.32031 10.6758 2.46094C10.7148 2.57031 10.7559 2.71094 10.7988 2.88281C10.8418 3.05469 10.8711 3.28516 10.8867 3.57422C10.9023 3.89453 10.9121 4.17773 10.916 4.42383C10.9199 4.66992 10.9219 5.19531 10.9219 6C10.9219 6.80469 10.9199 7.33008 10.916 7.57617C10.9121 7.82227 10.9023 8.10547 10.8867 8.42578C10.8711 8.71484 10.8418 8.94531 10.7988 9.11719C10.7559 9.28906 10.7148 9.42969 10.6758 9.53906C10.6211 9.67969 10.5586 9.80273 10.4883 9.9082C10.418 10.0137 10.332 10.1211 10.2305 10.2305C10.1211 10.332 10.0137 10.418 9.9082 10.4883C9.80273 10.5586 9.67969 10.6211 9.53906 10.6758C9.42969 10.7148 9.28906 10.7559 9.11719 10.7988C8.94531 10.8418 8.71484 10.8711 8.42578 10.8867C8.10547 10.9023 7.82227 10.9121 7.57617 10.916C7.33008 10.9199 6.80469 10.9219 6 10.9219C5.19531 10.9219 4.66992 10.9199 4.42383 10.916C4.17773 10.9121 3.89453 10.9023 3.57422 10.8867C3.28516 10.8711 3.05469 10.8418 2.88281 10.7988C2.71094 10.7559 2.57031 10.7148 2.46094 10.6758C2.32031 10.6211 2.19727 10.5586 2.0918 10.4883C1.98633 10.418 1.87891 10.332 1.76953 10.2305C1.66797 10.1211 1.58203 10.0137 1.51172 9.9082C1.44141 9.80273 1.37891 9.67969 1.32422 9.53906C1.28516 9.42969 1.24414 9.28906 1.20117 9.11719C1.1582 8.94531 1.12891 8.71484 1.11328 8.42578C1.09766 8.10547 1.08789 7.82227 1.08398 7.57617C1.08008 7.33008 1.07812 6.80469 1.07812 6C1.07812 5.19531 1.08008 4.66992 1.08398 4.42383C1.08789 4.17773 1.09766 3.89453 1.11328 3.57422C1.12891 3.28516 1.1582 3.05469 1.20117 2.88281C1.24414 2.71094 1.28516 2.57031 1.32422 2.46094C1.37891 2.32031 1.44141 2.19727 1.51172 2.0918C1.58203 1.98633 1.66797 1.87891 1.76953 1.76953C1.87891 1.66797 1.98633 1.58203 2.0918 1.51172C2.19727 1.44141 2.32031 1.37891 2.46094 1.32422C2.57031 1.28516 2.71094 1.24414 2.88281 1.20117C3.05469 1.1582 3.28516 1.12891 3.57422 1.11328C3.89453 1.09766 4.17773 1.08789 4.42383 1.08398C4.66992 1.08008 5.19531 1.07812 6 1.07812ZM6 0C5.1875 0 4.65234 0.00195312 4.39453 0.00585938C4.13672 0.00976562 3.84766 0.0195312 3.52734 0.0351562C3.20703 0.0507812 2.93164 0.0820312 2.70117 0.128906C2.4707 0.175781 2.26172 0.238281 2.07422 0.316406C1.87109 0.394531 1.68359 0.488281 1.51172 0.597656C1.33984 0.707031 1.17188 0.84375 1.00781 1.00781C0.84375 1.17188 0.707031 1.33984 0.597656 1.51172C0.488281 1.68359 0.394531 1.87109 0.316406 2.07422C0.238281 2.26172 0.175781 2.4707 0.128906 2.70117C0.0820312 2.93164 0.0507812 3.20703 0.0351562 3.52734C0.0195312 3.84766 0.00976562 4.13672 0.00585938 4.39453C0.00195312 4.65234 0 5.1875 0 6C0 6.8125 0.00195312 7.34766 0.00585938 7.60547C0.00976562 7.86328 0.0195312 8.15234 0.0351562 8.47266C0.0507812 8.79297 0.0820312 9.06836 0.128906 9.29883C0.175781 9.5293 0.238281 9.73828 0.316406 9.92578C0.394531 10.1289 0.488281 10.3164 0.597656 10.4883C0.707031 10.6602 0.84375 10.8281 1.00781 10.9922C1.17188 11.1562 1.33984 11.293 1.51172 11.4023C1.68359 11.5117 1.87109 11.6055 2.07422 11.6836C2.26172 11.7617 2.4707 11.8242 2.70117 11.8711C2.93164 11.918 3.20703 11.9492 3.52734 11.9648C3.84766 11.9805 4.13672 11.9902 4.39453 11.9941C4.65234 11.998 5.1875 12 6 12C6.8125 12 7.34766 11.998 7.60547 11.9941C7.86328 11.9902 8.15234 11.9805 8.47266 11.9648C8.79297 11.9492 9.06836 11.918 9.29883 11.8711C9.5293 11.8242 9.73828 11.7617 9.92578 11.6836C10.1289 11.6055 10.3164 11.5117 10.4883 11.4023C10.6602 11.293 10.8281 11.1562 10.9922 10.9922C11.1562 10.8281 11.293 10.6602 11.4023 10.4883C11.5117 10.3164 11.6055 10.1289 11.6836 9.92578C11.7617 9.73828 11.8242 9.5293 11.8711 9.29883C11.918 9.06836 11.9492 8.79297 11.9648 8.47266C11.9805 8.15234 11.9902 7.86328 11.9941 7.60547C11.998 7.34766 12 6.8125 12 6C12 5.1875 11.998 4.65234 11.9941 4.39453C11.9902 4.13672 11.9805 3.84766 11.9648 3.52734C11.9492 3.20703 11.918 2.93164 11.8711 2.70117C11.8242 2.4707 11.7617 2.26172 11.6836 2.07422C11.6055 1.87109 11.5117 1.68359 11.4023 1.51172C11.293 1.33984 11.1562 1.17188 10.9922 1.00781C10.8281 0.84375 10.6602 0.707031 10.4883 0.597656C10.3164 0.488281 10.1289 0.394531 9.92578 0.316406C9.73828 0.238281 9.5293 0.175781 9.29883 0.128906C9.06836 0.0820312 8.79297 0.0507812 8.47266 0.0351562C8.15234 0.0195312 7.86328 0.00976562 7.60547 0.00585938C7.34766 0.00195312 6.8125 0 6 0ZM6 2.91797C5.57812 2.91797 5.17969 3 4.80469 3.16406C4.42969 3.32031 4.10156 3.53906 3.82031 3.82031C3.53906 4.10156 3.32031 4.42969 3.16406 4.80469C3 5.17969 2.91797 5.57812 2.91797 6C2.91797 6.42188 3 6.82031 3.16406 7.19531C3.32031 7.57031 3.53906 7.89844 3.82031 8.17969C4.10156 8.46094 4.42969 8.67969 4.80469 8.83594C5.17969 9 5.57812 9.08203 6 9.08203C6.42188 9.08203 6.82031 9 7.19531 8.83594C7.57031 8.67969 7.89844 8.46094 8.17969 8.17969C8.46094 7.89844 8.67969 7.57031 8.83594 7.19531C9 6.82031 9.08203 6.42188 9.08203 6C9.08203 5.57812 9 5.17969 8.83594 4.80469C8.67969 4.42969 8.46094 4.10156 8.17969 3.82031C7.89844 3.53906 7.57031 3.32031 7.19531 3.16406C6.82031 3 6.42188 2.91797 6 2.91797ZM6 8.00391C5.44531 8.00391 4.97266 7.80859 4.58203 7.41797C4.19141 7.02734 3.99609 6.55469 3.99609 6C3.99609 5.44531 4.19141 4.97266 4.58203 4.58203C4.97266 4.19141 5.44531 3.99609 6 3.99609C6.55469 3.99609 7.02734 4.19141 7.41797 4.58203C7.80859 4.97266 8.00391 5.44531 8.00391 6C8.00391 6.55469 7.80859 7.02734 7.41797 7.41797C7.02734 7.80859 6.55469 8.00391 6 8.00391ZM9.92578 2.80078C9.92578 2.99609 9.85547 3.16406 9.71484 3.30469C9.57422 3.44531 9.40234 3.51562 9.19922 3.51562C9.00391 3.51562 8.83594 3.44531 8.69531 3.30469C8.55469 3.16406 8.48438 2.99609 8.48438 2.80078C8.48438 2.59766 8.55469 2.42578 8.69531 2.28516C8.83594 2.14453 9.00391 2.07422 9.19922 2.07422C9.40234 2.07422 9.57422 2.14453 9.71484 2.28516C9.85547 2.42578 9.92578 2.59766 9.92578 2.80078Z" fill="white"/>
</svg>