<svg width="81" height="81" viewBox="0 0 81 81" fill="none" xmlns="http://www.w3.org/2000/svg">
<path d="M21.0123 31.507C21.2742 30.8489 22.0114 30.5251 22.6694 30.7869C26.6831 32.3717 29.2738 36.1855 29.2738 40.4992C29.2738 44.8194 26.6831 48.6333 22.6694 50.2185C22.5178 50.2805 22.3559 50.308 22.2009 50.308C21.6876 50.308 21.2121 50.0014 21.0123 49.4984C20.7504 48.8404 21.0743 48.0927 21.7323 47.8413C24.7641 46.6458 26.7174 43.7656 26.7174 40.5065C26.7174 37.2473 24.7571 34.3672 21.7323 33.1717C21.0777 32.9133 20.7539 32.165 21.0123 31.507ZM3.58297 50.6589C1.26782 47.7994 0 44.1889 0 40.4986C0 36.8192 1.26782 33.2086 3.58297 30.3384C5.54331 27.9095 8.18223 26.0801 11.1245 25.1085C10.7007 24.0474 10.432 22.9139 10.3252 21.7529C10.0358 18.7005 10.9005 15.679 12.7471 13.2399C14.5938 10.7904 17.2741 9.14356 20.2783 8.58545C21.3222 8.38907 22.3833 8.34085 23.4203 8.4132C23.8578 3.67261 27.8611 0 32.6606 0C37.7801 0 41.9556 4.16528 41.9556 9.28802V24.4711H45.4731V18.1354C45.4731 17.4257 46.0485 16.8573 46.7513 16.8573C47.4541 16.8573 48.0294 17.4326 48.0294 18.1354V24.4711H51.5469V18.4041C51.5469 17.9459 51.7916 17.5222 52.1843 17.2982L60.3253 12.599V8.42343C58.6165 7.88253 57.3831 6.28051 57.3831 4.39944C57.3831 2.06707 59.2814 0.179039 61.6035 0.179039C63.9358 0.179039 65.8239 2.07042 65.8239 4.39944C65.8239 6.28051 64.5836 7.88251 62.8817 8.42343V13.3363C62.8817 13.7945 62.6371 14.2182 62.2444 14.4422L54.1173 19.1414V24.4677H55.4299C56.1396 24.4677 56.708 25.043 56.708 25.7458V27.0585H62.0343L66.7335 18.9313C66.9574 18.5351 67.3812 18.2939 67.8394 18.2939H72.7522C73.293 16.5851 74.8951 15.3518 76.7761 15.3518C79.1085 15.3518 80.9965 17.25 80.9965 19.5722C80.9965 21.9045 79.1051 23.7926 76.7761 23.7926C74.8951 23.7926 73.2931 22.5592 72.7522 20.8504H68.5766L63.8774 28.9776C63.6535 29.3738 63.2297 29.615 62.7715 29.615H56.7046V33.1325H63.0402C63.7499 33.1325 64.3184 33.7079 64.3184 34.4107C64.3184 35.1135 63.743 35.6888 63.0402 35.6888H56.7046V39.2064H72.7519C73.2928 37.5044 74.8948 36.2642 76.7758 36.2642C79.1082 36.2642 80.9962 38.1556 80.9962 40.4846C80.9962 42.817 79.1048 44.705 76.7758 44.705C74.8948 44.705 73.2928 43.4648 72.7519 41.7628L56.7081 41.7663V45.2839H63.0438C63.7535 45.2839 64.3219 45.8592 64.3219 46.562C64.3219 47.2648 63.7466 47.8402 63.0438 47.8402H56.7081V51.368H62.775C63.2332 51.368 63.657 51.6126 63.8809 52.0054L68.5801 60.1326H72.7557C73.2966 58.4238 74.8986 57.1904 76.7796 57.1904C79.112 57.1904 81 59.0887 81 61.4108C81 63.7432 79.1086 65.6312 76.7796 65.6312C74.8986 65.6312 73.2966 64.391 72.7557 62.689H67.8429C67.3847 62.689 66.9609 62.4444 66.737 62.0517L62.0378 53.9245H56.7115V55.2371C56.7115 55.9469 56.1362 56.5153 55.4334 56.5153H54.1208V62.0138L62.2479 66.7131C62.6441 66.937 62.8853 67.3608 62.8853 67.819V72.7318C64.5941 73.2727 65.8274 74.8747 65.8274 76.7558C65.8274 79.0882 63.9291 80.9762 61.607 80.9762C59.2747 80.9762 57.3867 79.0848 57.3867 76.7558C57.3867 74.8747 58.6269 73.2727 60.3288 72.7318L60.3254 68.5769L52.1982 63.8812C51.802 63.6572 51.5609 63.2335 51.5609 62.7753V56.5395H48.0434V63.0543C48.0434 63.764 47.468 64.3325 46.7652 64.3325C46.0624 64.3325 45.4871 63.7571 45.4871 63.0543V56.5395H41.9695V71.712C41.9695 76.8316 37.8043 81 32.6745 81C27.8789 81 23.8721 77.3274 23.4316 72.5868C23.1249 72.6144 22.8183 72.6213 22.5221 72.6213C21.7848 72.6213 21.0372 72.5489 20.2897 72.4145C17.2751 71.8564 14.6017 70.2096 12.7585 67.7601C10.9119 65.321 10.0506 62.2961 10.3365 59.2471C10.4433 58.0861 10.7155 56.9526 11.1358 55.8915C8.17984 54.9164 5.53396 53.0974 3.58403 50.6582L3.58297 50.6589ZM63.2671 76.7767C63.2671 75.8602 62.5195 75.1127 61.6031 75.1127C60.6867 75.1127 59.9391 75.8603 59.9391 76.7767C59.9391 77.6932 60.6867 78.4407 61.6031 78.4407C62.5196 78.4407 63.2671 77.6931 63.2671 76.7767ZM75.1119 61.4322C75.1119 62.3486 75.8595 63.0962 76.7759 63.0962C77.6923 63.0962 78.4399 62.3486 78.4399 61.4322C78.4399 60.5158 77.6923 59.7682 76.7759 59.7682C75.8594 59.7682 75.1119 60.5158 75.1119 61.4322ZM75.1119 40.4995C75.1119 41.416 75.8595 42.1635 76.7759 42.1635C77.6923 42.1635 78.4399 41.4159 78.4399 40.4995C78.4399 39.5831 77.6923 38.8355 76.7759 38.8355C75.8594 38.8355 75.1119 39.5831 75.1119 40.4995ZM75.1119 19.5766C75.1119 20.493 75.8595 21.2406 76.7759 21.2406C77.6923 21.2406 78.4399 20.493 78.4399 19.5766C78.4399 18.6601 77.6923 17.9125 76.7759 17.9125C75.8594 17.9091 75.1119 18.6567 75.1119 19.5766ZM59.936 4.40051C59.936 5.31696 60.6836 6.06452 61.6 6.06452C62.5164 6.06452 63.264 5.31691 63.264 4.40051C63.264 3.48405 62.5163 2.7365 61.6 2.7365C60.6835 2.7365 59.936 3.48411 59.936 4.40051ZM41.9554 48.5263H48.7044V32.4718H41.9554V48.5263ZM41.9554 27.0248V29.9153H49.9827C50.6924 29.9153 51.2608 30.4906 51.2608 31.1934V49.8144C51.2608 50.5242 50.6855 51.0926 49.9827 51.0926H41.9554V53.9831H54.1512V27.0248H41.9554ZM2.55637 40.4986C2.55637 46.5277 6.61481 51.8919 12.3303 53.5835C12.8781 52.7636 13.5258 51.9987 14.2733 51.3235C14.797 50.8481 15.6066 50.8928 16.0821 51.4131C16.5575 51.9367 16.5127 52.7463 15.9925 53.2218C15.2104 53.9315 14.5799 54.7342 14.0769 55.599C14.0494 55.661 14.0149 55.7265 13.9702 55.7885C12.2062 59.0373 12.413 63.1061 14.7694 66.2204C17.8115 70.2444 23.3272 71.2607 27.6029 68.5976C28.2058 68.2186 28.9878 68.4081 29.3668 69.0041C29.7458 69.607 29.5563 70.3891 28.9603 70.768C28.006 71.3606 26.9896 71.8223 25.9354 72.1255C26.1524 75.6706 29.0946 78.444 32.65 78.444C36.3673 78.444 39.3819 75.4294 39.3819 71.7121V58.9474C39.3819 56.3463 37.2597 54.224 34.6585 54.224C32.0574 54.224 29.9352 56.3393 29.9352 58.9474C29.9352 59.6571 29.3598 60.2255 28.657 60.2255C27.9542 60.2255 27.3789 59.6502 27.3789 58.9474C27.3789 54.9337 30.6449 51.6677 34.6585 51.6677C36.4569 51.6677 38.1141 52.3257 39.3819 53.4144V28.34C38.1037 29.4287 36.4569 30.0868 34.6585 30.0868C30.6449 30.0868 27.3789 26.8207 27.3789 22.8071C27.3789 22.0974 27.9542 21.5289 28.657 21.5289C29.3598 21.5289 29.9352 22.1043 29.9352 22.8071C29.9352 25.4082 32.0505 27.5305 34.6585 27.5305C37.2699 27.5305 39.3819 25.4151 39.3819 22.8071V9.28824C39.3819 5.58124 36.357 2.55634 32.65 2.55634C29.0947 2.55634 26.1524 5.3297 25.9354 8.87486C26.9896 9.18838 28.006 9.6397 28.9603 10.2323C29.5632 10.6113 29.7423 11.3933 29.3668 11.9962C28.9878 12.5991 28.2058 12.7783 27.6029 12.4028C23.3274 9.73967 17.8113 10.756 14.7694 14.7799C12.4129 17.8944 12.1959 21.9425 13.9495 25.1916C14.0046 25.2639 14.0391 25.3363 14.0769 25.4155C14.5731 26.2699 15.2035 27.0727 15.9752 27.7721C16.4989 28.2475 16.5333 29.0605 16.0648 29.5808C15.8133 29.8599 15.4619 30.0046 15.1208 30.0046C14.8142 30.0046 14.5076 29.8978 14.2561 29.6704C13.5085 28.9951 12.8608 28.2303 12.313 27.4103C6.61475 29.1157 2.55637 34.4763 2.55637 40.4986Z" fill="black"/>
</svg>
