<svg width="169" height="29" viewBox="0 0 169 29" fill="none" xmlns="http://www.w3.org/2000/svg">
<path d="M0 25H25V-1.78814e-07H0V25ZM36.357 5.06818V23.25H33.6137V5.06818H36.357ZM42.7934 15.1534V23.25H40.1389V9.61364H42.6869V11.8331H42.8556C43.1692 11.111 43.6605 10.531 44.3293 10.093C45.004 9.65507 45.8533 9.43608 46.8772 9.43608C47.8064 9.43608 48.6202 9.63139 49.3186 10.022C50.017 10.4067 50.5586 10.9808 50.9433 11.7443C51.328 12.5078 51.5203 13.4518 51.5203 14.5763V23.25H48.8659V14.896C48.8659 13.9076 48.6084 13.1352 48.0935 12.5788C47.5786 12.0166 46.8713 11.7354 45.9717 11.7354C45.3561 11.7354 44.8087 11.8686 44.3293 12.1349C43.8558 12.4013 43.48 12.7919 43.2018 13.3068C42.9295 13.8158 42.7934 14.4313 42.7934 15.1534ZM61.4458 9.61364V11.7443H53.9972V9.61364H61.4458ZM55.9948 6.34659H58.6492V19.2461C58.6492 19.761 58.7262 20.1487 58.8801 20.4091C59.0339 20.6636 59.2322 20.8382 59.4749 20.9329C59.7235 21.0217 59.9927 21.0661 60.2828 21.0661C60.4958 21.0661 60.6823 21.0513 60.8421 21.0217C61.0019 20.9921 61.1262 20.9684 61.2149 20.9506L61.6943 23.1435C61.5405 23.2027 61.3215 23.2618 61.0374 23.321C60.7533 23.3861 60.3982 23.4216 59.972 23.4276C59.2736 23.4394 58.6226 23.3151 58.0189 23.0547C57.4152 22.7943 56.9269 22.3918 56.5541 21.8473C56.1812 21.3028 55.9948 20.6192 55.9948 19.7965V6.34659ZM70.1127 23.5252C68.7692 23.5252 67.6122 23.2382 66.6415 22.6641C65.6768 22.084 64.931 21.2702 64.4043 20.2227C63.8835 19.1692 63.623 17.9351 63.623 16.5206C63.623 15.1238 63.8835 13.8928 64.4043 12.8274C64.931 11.7621 65.665 10.9305 66.606 10.3327C67.553 9.73497 68.6597 9.43608 69.9263 9.43608C70.6957 9.43608 71.4415 9.56333 72.1635 9.81783C72.8856 10.0723 73.5337 10.4718 74.1078 11.0163C74.6819 11.5608 75.1346 12.2681 75.4661 13.1381C75.7975 14.0022 75.9632 15.0528 75.9632 16.2898V17.2308H65.1234V15.2422H73.362C73.362 14.5438 73.22 13.9253 72.9359 13.3867C72.6518 12.8422 72.2523 12.4131 71.7374 12.0994C71.2284 11.7857 70.6306 11.6289 69.9441 11.6289C69.1983 11.6289 68.5473 11.8124 67.9909 12.1793C67.4405 12.5404 67.0144 13.0138 66.7125 13.5998C66.4166 14.1798 66.2686 14.8101 66.2686 15.4908V17.0444C66.2686 17.9558 66.4284 18.7312 66.748 19.3704C67.0736 20.0096 67.5263 20.4979 68.1064 20.8352C68.6864 21.1667 69.3641 21.3324 70.1394 21.3324C70.6425 21.3324 71.1011 21.2614 71.5154 21.1193C71.9297 20.9714 72.2878 20.7524 72.5897 20.4624C72.8915 20.1723 73.1223 19.8143 73.2821 19.3881L75.7946 19.8409C75.5933 20.5807 75.2323 21.2288 74.7115 21.7852C74.1966 22.3356 73.5485 22.7647 72.7672 23.0724C71.9919 23.3743 71.1071 23.5252 70.1127 23.5252ZM81.5629 5.06818V23.25H78.9085V5.06818H81.5629ZM87.7885 5.06818V23.25H85.1341V5.06818H87.7885ZM91.3596 23.25V9.61364H94.0141V23.25H91.3596ZM92.7002 7.50959C92.2385 7.50959 91.842 7.3557 91.5106 7.04794C91.185 6.73426 91.0223 6.36139 91.0223 5.92933C91.0223 5.49136 91.185 5.11849 91.5106 4.81072C91.842 4.49704 92.2385 4.3402 92.7002 4.3402C93.1618 4.3402 93.5554 4.49704 93.8809 4.81072C94.2124 5.11849 94.3781 5.49136 94.3781 5.92933C94.3781 6.36139 94.2124 6.73426 93.8809 7.04794C93.5554 7.3557 93.1618 7.50959 92.7002 7.50959ZM103.303 28.6477C102.219 28.6477 101.287 28.5057 100.506 28.2216C99.7307 27.9375 99.0974 27.5617 98.6062 27.0941C98.1149 26.6265 97.748 26.1146 97.5053 25.5582L99.7869 24.6172C99.9467 24.8776 100.16 25.1528 100.426 25.4428C100.698 25.7388 101.065 25.9903 101.527 26.1974C101.995 26.4046 102.595 26.5082 103.329 26.5082C104.335 26.5082 105.167 26.2625 105.824 25.7713C106.481 25.286 106.809 24.5107 106.809 23.4453V20.7642H106.641C106.481 21.0542 106.25 21.3768 105.948 21.7319C105.652 22.087 105.244 22.3948 104.723 22.6552C104.202 22.9156 103.525 23.0458 102.69 23.0458C101.613 23.0458 100.642 22.7943 99.7781 22.2912C98.9199 21.7822 98.2392 21.0335 97.7362 20.0451C97.239 19.0508 96.9904 17.8286 96.9904 16.3786C96.9904 14.9285 97.236 13.6856 97.7273 12.6499C98.2244 11.6141 98.9051 10.821 99.7692 10.2706C100.633 9.71425 101.613 9.43608 102.708 9.43608C103.554 9.43608 104.238 9.57812 104.759 9.86222C105.279 10.1404 105.685 10.4659 105.975 10.8388C106.271 11.2116 106.499 11.5401 106.658 11.8242H106.854V9.61364H109.455V23.5518C109.455 24.7237 109.183 25.6855 108.638 26.4371C108.094 27.1888 107.357 27.7451 106.428 28.1062C105.504 28.4672 104.463 28.6477 103.303 28.6477ZM103.276 20.8441C104.039 20.8441 104.685 20.6665 105.211 20.3114C105.744 19.9504 106.146 19.4355 106.419 18.7667C106.697 18.092 106.836 17.2841 106.836 16.343C106.836 15.4257 106.7 14.6178 106.428 13.9194C106.155 13.221 105.756 12.6765 105.229 12.2859C104.702 11.8893 104.051 11.6911 103.276 11.6911C102.477 11.6911 101.811 11.8982 101.278 12.3125C100.746 12.7209 100.343 13.2772 100.071 13.9815C99.8047 14.6858 99.6715 15.473 99.6715 16.343C99.6715 17.2367 99.8076 18.021 100.08 18.6957C100.352 19.3704 100.755 19.8971 101.287 20.2759C101.826 20.6547 102.489 20.8441 103.276 20.8441ZM118.892 23.5252C117.549 23.5252 116.391 23.2382 115.421 22.6641C114.456 22.084 113.71 21.2702 113.184 20.2227C112.663 19.1692 112.402 17.9351 112.402 16.5206C112.402 15.1238 112.663 13.8928 113.184 12.8274C113.71 11.7621 114.444 10.9305 115.385 10.3327C116.332 9.73497 117.439 9.43608 118.706 9.43608C119.475 9.43608 120.221 9.56333 120.943 9.81783C121.665 10.0723 122.313 10.4718 122.887 11.0163C123.461 11.5608 123.914 12.2681 124.245 13.1381C124.577 14.0022 124.743 15.0528 124.743 16.2898V17.2308H113.903V15.2422H122.141C122.141 14.5438 121.999 13.9253 121.715 13.3867C121.431 12.8422 121.032 12.4131 120.517 12.0994C120.008 11.7857 119.41 11.6289 118.723 11.6289C117.978 11.6289 117.327 11.8124 116.77 12.1793C116.22 12.5404 115.794 13.0138 115.492 13.5998C115.196 14.1798 115.048 14.8101 115.048 15.4908V17.0444C115.048 17.9558 115.208 18.7312 115.527 19.3704C115.853 20.0096 116.306 20.4979 116.886 20.8352C117.466 21.1667 118.143 21.3324 118.919 21.3324C119.422 21.3324 119.88 21.2614 120.295 21.1193C120.709 20.9714 121.067 20.7524 121.369 20.4624C121.671 20.1723 121.902 19.8143 122.061 19.3881L124.574 19.8409C124.373 20.5807 124.012 21.2288 123.491 21.7852C122.976 22.3356 122.328 22.7647 121.547 23.0724C120.771 23.3743 119.886 23.5252 118.892 23.5252ZM130.342 15.1534V23.25H127.688V9.61364H130.236V11.8331H130.404C130.718 11.111 131.209 10.531 131.878 10.093C132.553 9.65507 133.402 9.43608 134.426 9.43608C135.355 9.43608 136.169 9.63139 136.867 10.022C137.566 10.4067 138.107 10.9808 138.492 11.7443C138.877 12.5078 139.069 13.4518 139.069 14.5763V23.25H136.415V14.896C136.415 13.9076 136.157 13.1352 135.642 12.5788C135.127 12.0166 134.42 11.7354 133.521 11.7354C132.905 11.7354 132.358 11.8686 131.878 12.1349C131.405 12.4013 131.029 12.7919 130.751 13.3068C130.478 13.8158 130.342 14.4313 130.342 15.1534ZM148.373 23.5252C147.053 23.5252 145.917 23.2263 144.964 22.6286C144.017 22.0249 143.289 21.1933 142.78 20.1339C142.271 19.0745 142.017 17.8612 142.017 16.494C142.017 15.109 142.277 13.8868 142.798 12.8274C143.319 11.7621 144.053 10.9305 145 10.3327C145.947 9.73497 147.062 9.43608 148.347 9.43608C149.382 9.43608 150.306 9.62843 151.116 10.0131C151.927 10.3919 152.581 10.9246 153.078 11.6112C153.581 12.2977 153.88 13.0997 153.975 14.017H151.392C151.25 13.3778 150.924 12.8274 150.415 12.3658C149.912 11.9041 149.237 11.6733 148.391 11.6733C147.651 11.6733 147.003 11.8686 146.447 12.2592C145.896 12.6439 145.467 13.1944 145.159 13.9105C144.852 14.6207 144.698 15.4612 144.698 16.4318C144.698 17.4261 144.849 18.2843 145.15 19.0064C145.452 19.7285 145.878 20.2878 146.429 20.6843C146.985 21.0808 147.639 21.2791 148.391 21.2791C148.894 21.2791 149.35 21.1874 149.758 21.0039C150.172 20.8145 150.519 20.5452 150.797 20.196C151.081 19.8468 151.279 19.4266 151.392 18.9354H153.975C153.88 19.8172 153.593 20.6044 153.114 21.2969C152.634 21.9893 151.992 22.5339 151.187 22.9304C150.388 23.3269 149.45 23.5252 148.373 23.5252ZM162.691 23.5252C161.347 23.5252 160.19 23.2382 159.22 22.6641C158.255 22.084 157.509 21.2702 156.982 20.2227C156.462 19.1692 156.201 17.9351 156.201 16.5206C156.201 15.1238 156.462 13.8928 156.982 12.8274C157.509 11.7621 158.243 10.9305 159.184 10.3327C160.131 9.73497 161.238 9.43608 162.504 9.43608C163.274 9.43608 164.02 9.56333 164.742 9.81783C165.464 10.0723 166.112 10.4718 166.686 11.0163C167.26 11.5608 167.713 12.2681 168.044 13.1381C168.376 14.0022 168.541 15.0528 168.541 16.2898V17.2308H157.702V15.2422H165.94C165.94 14.5438 165.798 13.9253 165.514 13.3867C165.23 12.8422 164.83 12.4131 164.316 12.0994C163.807 11.7857 163.209 11.6289 162.522 11.6289C161.776 11.6289 161.125 11.8124 160.569 12.1793C160.019 12.5404 159.593 13.0138 159.291 13.5998C158.995 14.1798 158.847 14.8101 158.847 15.4908V17.0444C158.847 17.9558 159.007 18.7312 159.326 19.3704C159.652 20.0096 160.104 20.4979 160.684 20.8352C161.265 21.1667 161.942 21.3324 162.718 21.3324C163.221 21.3324 163.679 21.2614 164.094 21.1193C164.508 20.9714 164.866 20.7524 165.168 20.4624C165.47 20.1723 165.7 19.8143 165.86 19.3881L168.373 19.8409C168.171 20.5807 167.81 21.2288 167.29 21.7852C166.775 22.3356 166.127 22.7647 165.345 23.0724C164.57 23.3743 163.685 23.5252 162.691 23.5252Z" fill="#202020"/>
</svg>