<svg width="32" height="32" viewBox="0 0 32 32" fill="none" xmlns="http://www.w3.org/2000/svg">
<path d="M0 6C0 2.68629 2.68629 0 6 0H26C29.3137 0 32 2.68629 32 6V26C32 29.3137 29.3137 32 26 32H6C2.68629 32 0 29.3137 0 26V6Z" fill="#0070CE"/>
<path d="M15.9998 9.00005C16.001 8.60008 15.9222 8.20391 15.768 7.83485C15.6139 7.46579 15.3874 7.13128 15.1021 6.851C14.8168 6.57072 14.4783 6.35032 14.1065 6.20278C13.7347 6.05524 13.3372 5.98353 12.9373 5.99186C12.5374 6.0002 12.1433 6.08841 11.778 6.25132C11.4127 6.41422 11.0836 6.64853 10.8102 6.94045C10.5368 7.23238 10.3245 7.57604 10.1859 7.9512C10.0472 8.32637 9.98499 8.72548 10.0028 9.12505C9.41503 9.27619 8.86933 9.5591 8.40706 9.95236C7.94479 10.3456 7.57807 10.8389 7.33467 11.3949C7.09128 11.9509 6.97759 12.5549 7.00222 13.1614C7.02685 13.7678 7.18915 14.3606 7.47683 14.8951C6.97101 15.306 6.57326 15.8343 6.31817 16.434C6.06308 17.0337 5.95839 17.6866 6.01319 18.336C6.068 18.9854 6.28065 19.6116 6.63264 20.1601C6.98462 20.7085 7.46529 21.1627 8.03283 21.4831C7.96275 22.0253 8.00457 22.5761 8.15572 23.1016C8.30686 23.627 8.56413 24.1159 8.91161 24.538C9.2591 24.9601 9.68944 25.3065 10.176 25.5558C10.6627 25.8051 11.1952 25.952 11.7408 25.9874C12.2864 26.0228 12.8335 25.946 13.3482 25.7617C13.863 25.5774 14.3345 25.2895 14.7336 24.9158C15.1327 24.5421 15.451 24.0906 15.6688 23.5891C15.8866 23.0876 15.9992 22.5468 15.9998 22V9.00005Z" stroke="white" stroke-width="1.5" stroke-linecap="round" stroke-linejoin="round"/>
<path d="M13 17C13.8396 16.7047 14.5727 16.167 15.1067 15.455C15.6407 14.743 15.9515 13.8887 16 13" stroke="white" stroke-width="1.5" stroke-linecap="round" stroke-linejoin="round"/>
<path d="M10.0029 9.125C10.0227 9.60873 10.1593 10.0805 10.4009 10.5" stroke="white" stroke-width="1.5" stroke-linecap="round" stroke-linejoin="round"/>
<path d="M7.47656 14.896C7.6595 14.747 7.85527 14.6145 8.06156 14.5" stroke="white" stroke-width="1.5" stroke-linecap="round" stroke-linejoin="round"/>
<path d="M10.0002 21.9999C9.31103 22.0002 8.63347 21.8225 8.0332 21.4839" stroke="white" stroke-width="1.5" stroke-linecap="round" stroke-linejoin="round"/>
<path d="M16 17H20" stroke="white" stroke-width="1.5" stroke-linecap="round" stroke-linejoin="round"/>
<path d="M16 22H22C22.5304 22 23.0391 22.2107 23.4142 22.5858C23.7893 22.9609 24 23.4696 24 24V25" stroke="white" stroke-width="1.5" stroke-linecap="round" stroke-linejoin="round"/>
<path d="M16 12H24" stroke="white" stroke-width="1.5" stroke-linecap="round" stroke-linejoin="round"/>
<path d="M20 12V9C20 8.46957 20.2107 7.96086 20.5858 7.58579C20.9609 7.21071 21.4696 7 22 7" stroke="white" stroke-width="1.5" stroke-linecap="round" stroke-linejoin="round"/>
<path d="M20 17.5C20.2761 17.5 20.5 17.2761 20.5 17C20.5 16.7239 20.2761 16.5 20 16.5C19.7239 16.5 19.5 16.7239 19.5 17C19.5 17.2761 19.7239 17.5 20 17.5Z" stroke="white" stroke-width="1.5" stroke-linecap="round" stroke-linejoin="round"/>
<path d="M22 7.5C22.2761 7.5 22.5 7.27614 22.5 7C22.5 6.72386 22.2761 6.5 22 6.5C21.7239 6.5 21.5 6.72386 21.5 7C21.5 7.27614 21.7239 7.5 22 7.5Z" stroke="white" stroke-width="1.5" stroke-linecap="round" stroke-linejoin="round"/>
<path d="M24 25.5C24.2761 25.5 24.5 25.2761 24.5 25C24.5 24.7239 24.2761 24.5 24 24.5C23.7239 24.5 23.5 24.7239 23.5 25C23.5 25.2761 23.7239 25.5 24 25.5Z" stroke="white" stroke-width="1.5" stroke-linecap="round" stroke-linejoin="round"/>
<path d="M24 12.5C24.2761 12.5 24.5 12.2761 24.5 12C24.5 11.7239 24.2761 11.5 24 11.5C23.7239 11.5 23.5 11.7239 23.5 12C23.5 12.2761 23.7239 12.5 24 12.5Z" stroke="white" stroke-width="1.5" stroke-linecap="round" stroke-linejoin="round"/>
</svg>
