<svg width="40" height="40" viewBox="0 0 40 40" fill="none" xmlns="http://www.w3.org/2000/svg">
<path d="M0 10C0 4.47715 4.47715 0 10 0H30C35.5228 0 40 4.47715 40 10V30C40 35.5228 35.5228 40 30 40H10C4.47715 40 0 35.5228 0 30V10Z" fill="#1D293D"/>
<g clip-path="url(#clip0_1104_1397)">
<path d="M25.8333 10H14.1667C11.8658 10 10 11.8658 10 14.1667V25.8333C10 28.1342 11.8658 30 14.1667 30H25.8333C28.135 30 30 28.1342 30 25.8333V14.1667C30 11.8658 28.135 10 25.8333 10ZM16.6667 25.8333H14.1667V16.6667H16.6667V25.8333ZM15.4167 15.61C14.6117 15.61 13.9583 14.9517 13.9583 14.14C13.9583 13.3283 14.6117 12.67 15.4167 12.67C16.2217 12.67 16.875 13.3283 16.875 14.14C16.875 14.9517 16.2225 15.61 15.4167 15.61ZM26.6667 25.8333H24.1667V21.1633C24.1667 18.3567 20.8333 18.5692 20.8333 21.1633V25.8333H18.3333V16.6667H20.8333V18.1375C21.9967 15.9825 26.6667 15.8233 26.6667 20.2008V25.8333Z" fill="white"/>
</g>
<defs>
<clipPath id="clip0_1104_1397">
<rect width="20" height="20" fill="white" transform="translate(10 10)"/>
</clipPath>
</defs>
</svg>
