<svg width="12" height="12" viewBox="0 0 12 12" fill="none" xmlns="http://www.w3.org/2000/svg">
<path d="M1.52319 3H3.74976V11.25H1.52319V3ZM8.32007 3C7.90601 3 7.58374 3.07617 7.35327 3.22852C7.1228 3.38086 6.92163 3.52344 6.74976 3.65625V3H4.51147V11.25H6.74976V6.05859C6.74976 6.05859 6.78687 5.88672 6.86108 5.54297C6.9353 5.19922 7.28491 5.02734 7.90991 5.02734C8.28491 5.02734 8.5603 5.12305 8.73608 5.31445C8.91187 5.50586 8.99976 5.75391 8.99976 6.05859V11.25H11.3552V6.12891C11.3552 5.42578 11.2341 4.86719 10.9919 4.45312C10.7498 4.03906 10.4626 3.72461 10.1306 3.50977C9.79858 3.29492 9.46069 3.15625 9.11694 3.09375C8.77319 3.03125 8.50757 3 8.32007 3ZM1.49976 1.125C1.49976 1.4375 1.60913 1.70312 1.82788 1.92188C2.04663 2.14062 2.31226 2.25 2.62476 2.25C2.93726 2.25 3.20288 2.14062 3.42163 1.92188C3.64038 1.70312 3.74976 1.4375 3.74976 1.125C3.74976 0.8125 3.64038 0.546875 3.42163 0.328125C3.20288 0.109375 2.93726 0 2.62476 0C2.31226 0 2.04663 0.109375 1.82788 0.328125C1.60913 0.546875 1.49976 0.8125 1.49976 1.125Z" fill="white"/>
</svg>