<svg width="64" height="64" viewBox="0 0 64 64" fill="none" xmlns="http://www.w3.org/2000/svg">
<path d="M0 32C0 14.3269 14.3269 0 32 0C49.6731 0 64 14.3269 64 32C64 49.6731 49.6731 64 32 64C14.3269 64 0 49.6731 0 32Z" fill="#1DB954"/>
<path d="M44.9021 29.3333C45.511 32.3217 45.0771 35.4286 43.6726 38.1357C42.2681 40.8429 39.978 42.9867 37.1841 44.2097C34.3903 45.4328 31.2616 45.661 28.3198 44.8565C25.3781 44.0519 22.801 42.2632 21.0185 39.7885C19.2359 37.3139 18.3556 34.303 18.5243 31.2578C18.6931 28.2127 19.9006 25.3174 21.9457 23.0549C23.9907 20.7923 26.7496 19.2992 29.7622 18.8246C32.7749 18.35 35.8592 18.9225 38.5008 20.4467" stroke="white" stroke-width="2.66667" stroke-linecap="round" stroke-linejoin="round"/>
<path d="M27.834 30.6663L31.834 34.6663L45.1673 21.333" stroke="white" stroke-width="2.66667" stroke-linecap="round" stroke-linejoin="round"/>
</svg>
