<svg width="42" height="42" viewBox="0 0 42 42" fill="none" xmlns="http://www.w3.org/2000/svg">
<path d="M0 12C0 5.37258 5.37258 0 12 0H30C36.6274 0 42 5.37258 42 12V30C42 36.6274 36.6274 42 30 42H12C5.37258 42 0 36.6274 0 30V12Z" fill="black"/>
<path d="M11.0781 11.1899L18.7734 22.2056L11.0391 31.1899H12.7773L19.5547 23.3384L25.0234 31.1899H30.9414L22.8164 19.5493L30.043 11.1899H28.3047L22.0547 18.436L17.0156 11.1899H11.0781ZM13.5391 12.4399H16.293L28.5 29.9399H25.7461L13.5391 12.4399Z" fill="white"/>
</svg>
