<svg width="42" height="42" viewBox="0 0 42 42" fill="none" xmlns="http://www.w3.org/2000/svg">
<mask id="path-1-inside-1_1375_652" fill="white">
<path d="M0 12C0 5.37258 5.37258 0 12 0H30C36.6274 0 42 5.37258 42 12V30C42 36.6274 36.6274 42 30 42H12C5.37258 42 0 36.6274 0 30V12Z"/>
</mask>
<path d="M0 12C0 5.37258 5.37258 0 12 0H30C36.6274 0 42 5.37258 42 12V30C42 36.6274 36.6274 42 30 42H12C5.37258 42 0 36.6274 0 30V12Z" fill="#007BB6"/>
<path d="M12 0V1H30V0V-1H12V0ZM42 12H41V30H42H43V12H42ZM30 42V41H12V42V43H30V42ZM0 30H1V12H0H-1V30H0ZM12 42V41C5.92487 41 1 36.0751 1 30H0H-1C-1 37.1797 4.8203 43 12 43V42ZM42 30H41C41 36.0751 36.0751 41 30 41V42V43C37.1797 43 43 37.1797 43 30H42ZM30 0V1C36.0751 1 41 5.92487 41 12H42H43C43 4.8203 37.1797 -1 30 -1V0ZM12 0V-1C4.8203 -1 -1 4.8203 -1 12H0H1C1 5.92487 5.92487 1 12 1V0Z" fill="#007BB6" mask="url(#path-1-inside-1_1375_652)"/>
<path d="M13.5391 16.1899H17.25V29.9399H13.5391V16.1899ZM24.8672 16.1899C24.1771 16.1899 23.64 16.3169 23.2559 16.5708C22.8717 16.8247 22.5365 17.0623 22.25 17.2837V16.1899H18.5195V29.9399H22.25V21.2876C22.25 21.2876 22.3118 21.0011 22.4355 20.4282C22.5592 19.8553 23.1419 19.5688 24.1836 19.5688C24.8086 19.5688 25.2676 19.7284 25.5605 20.0474C25.8535 20.3664 26 20.7798 26 21.2876V29.9399H29.9258V21.4048C29.9258 20.2329 29.724 19.3019 29.3203 18.6118C28.9167 17.9217 28.4382 17.3976 27.8848 17.0396C27.3314 16.6815 26.7682 16.4504 26.1953 16.3462C25.6224 16.242 25.1797 16.1899 24.8672 16.1899ZM13.5 13.0649C13.5 13.5858 13.6823 14.0285 14.0469 14.3931C14.4115 14.7576 14.8542 14.9399 15.375 14.9399C15.8958 14.9399 16.3385 14.7576 16.7031 14.3931C17.0677 14.0285 17.25 13.5858 17.25 13.0649C17.25 12.5441 17.0677 12.1014 16.7031 11.7368C16.3385 11.3722 15.8958 11.1899 15.375 11.1899C14.8542 11.1899 14.4115 11.3722 14.0469 11.7368C13.6823 12.1014 13.5 12.5441 13.5 13.0649Z" fill="white"/>
</svg>
