<svg width="42" height="42" viewBox="0 0 42 42" fill="none" xmlns="http://www.w3.org/2000/svg">
<mask id="path-1-inside-1_1375_664" fill="white">
<path d="M0 12C0 5.37258 5.37258 0 12 0H30C36.6274 0 42 5.37258 42 12V30C42 36.6274 36.6274 42 30 42H12C5.37258 42 0 36.6274 0 30V12Z"/>
</mask>
<path d="M0 12C0 5.37258 5.37258 0 12 0H30C36.6274 0 42 5.37258 42 12V30C42 36.6274 36.6274 42 30 42H12C5.37258 42 0 36.6274 0 30V12Z" fill="#EA2C59"/>
<path d="M12 0V1H30V0V-1H12V0ZM42 12H41V30H42H43V12H42ZM30 42V41H12V42V43H30V42ZM0 30H1V12H0H-1V30H0ZM12 42V41C5.92487 41 1 36.0751 1 30H0H-1C-1 37.1797 4.8203 43 12 43V42ZM42 30H41C41 36.0751 36.0751 41 30 41V42V43C37.1797 43 43 37.1797 43 30H42ZM30 0V1C36.0751 1 41 5.92487 41 12H42H43C43 4.8203 37.1797 -1 30 -1V0ZM12 0V-1C4.8203 -1 -1 4.8203 -1 12H0H1C1 5.92487 5.92487 1 12 1V0Z" fill="#EA2C59" mask="url(#path-1-inside-1_1375_664)"/>
<path d="M21 12.9868C22.3411 12.9868 23.2168 12.9901 23.627 12.9966C24.0371 13.0031 24.5091 13.0194 25.043 13.0454C25.5247 13.0715 25.9089 13.1203 26.1953 13.1919C26.4818 13.2635 26.7161 13.3319 26.8984 13.397C27.1328 13.4881 27.3379 13.5923 27.5137 13.7095C27.6895 13.8267 27.8685 13.9699 28.0508 14.1392C28.2201 14.3215 28.3633 14.5005 28.4805 14.6763C28.5977 14.8521 28.7018 15.0571 28.793 15.2915C28.8581 15.4738 28.9264 15.7082 28.998 15.9946C29.0697 16.2811 29.1185 16.6652 29.1445 17.147C29.1706 17.6808 29.1868 18.1528 29.1934 18.563C29.1999 18.9731 29.2031 19.8488 29.2031 21.1899C29.2031 22.5311 29.1999 23.4067 29.1934 23.8169C29.1868 24.2271 29.1706 24.6991 29.1445 25.2329C29.1185 25.7147 29.0697 26.0988 28.998 26.3853C28.9264 26.6717 28.8581 26.9061 28.793 27.0884C28.7018 27.3228 28.5977 27.5278 28.4805 27.7036C28.3633 27.8794 28.2201 28.0584 28.0508 28.2407C27.8685 28.41 27.6895 28.5532 27.5137 28.6704C27.3379 28.7876 27.1328 28.8918 26.8984 28.9829C26.7161 29.048 26.4818 29.1164 26.1953 29.188C25.9089 29.2596 25.5247 29.3084 25.043 29.3345C24.5091 29.3605 24.0371 29.3768 23.627 29.3833C23.2168 29.3898 22.3411 29.3931 21 29.3931C19.6589 29.3931 18.7832 29.3898 18.373 29.3833C17.9629 29.3768 17.4909 29.3605 16.957 29.3345C16.4753 29.3084 16.0911 29.2596 15.8047 29.188C15.5182 29.1164 15.2839 29.048 15.1016 28.9829C14.8672 28.8918 14.6621 28.7876 14.4863 28.6704C14.3105 28.5532 14.1315 28.41 13.9492 28.2407C13.7799 28.0584 13.6367 27.8794 13.5195 27.7036C13.4023 27.5278 13.2982 27.3228 13.207 27.0884C13.1419 26.9061 13.0736 26.6717 13.002 26.3853C12.9303 26.0988 12.8815 25.7147 12.8555 25.2329C12.8294 24.6991 12.8132 24.2271 12.8066 23.8169C12.8001 23.4067 12.7969 22.5311 12.7969 21.1899C12.7969 19.8488 12.8001 18.9731 12.8066 18.563C12.8132 18.1528 12.8294 17.6808 12.8555 17.147C12.8815 16.6652 12.9303 16.2811 13.002 15.9946C13.0736 15.7082 13.1419 15.4738 13.207 15.2915C13.2982 15.0571 13.4023 14.8521 13.5195 14.6763C13.6367 14.5005 13.7799 14.3215 13.9492 14.1392C14.1315 13.9699 14.3105 13.8267 14.4863 13.7095C14.6621 13.5923 14.8672 13.4881 15.1016 13.397C15.2839 13.3319 15.5182 13.2635 15.8047 13.1919C16.0911 13.1203 16.4753 13.0715 16.957 13.0454C17.4909 13.0194 17.9629 13.0031 18.373 12.9966C18.7832 12.9901 19.6589 12.9868 21 12.9868ZM21 11.1899C19.6458 11.1899 18.7539 11.1932 18.3242 11.1997C17.8945 11.2062 17.4128 11.2225 16.8789 11.2485C16.3451 11.2746 15.8861 11.3267 15.502 11.4048C15.1178 11.4829 14.7695 11.5871 14.457 11.7173C14.1185 11.8475 13.806 12.0037 13.5195 12.186C13.2331 12.3683 12.9531 12.5962 12.6797 12.8696C12.4062 13.1431 12.1784 13.423 11.9961 13.7095C11.8138 13.9959 11.6576 14.3084 11.5273 14.647C11.3971 14.9595 11.293 15.3078 11.2148 15.6919C11.1367 16.076 11.0846 16.535 11.0586 17.0688C11.0326 17.6027 11.0163 18.0845 11.0098 18.5142C11.0033 18.9438 11 19.8358 11 21.1899C11 22.5441 11.0033 23.436 11.0098 23.8657C11.0163 24.2954 11.0326 24.7772 11.0586 25.311C11.0846 25.8449 11.1367 26.3039 11.2148 26.688C11.293 27.0721 11.3971 27.4204 11.5273 27.7329C11.6576 28.0715 11.8138 28.384 11.9961 28.6704C12.1784 28.9569 12.4062 29.2368 12.6797 29.5103C12.9531 29.7837 13.2331 30.0116 13.5195 30.1938C13.806 30.3761 14.1185 30.5324 14.457 30.6626C14.7695 30.7928 15.1178 30.897 15.502 30.9751C15.8861 31.0532 16.3451 31.1053 16.8789 31.1313C17.4128 31.1574 17.8945 31.1737 18.3242 31.1802C18.7539 31.1867 19.6458 31.1899 21 31.1899C22.3542 31.1899 23.2461 31.1867 23.6758 31.1802C24.1055 31.1737 24.5872 31.1574 25.1211 31.1313C25.6549 31.1053 26.1139 31.0532 26.498 30.9751C26.8822 30.897 27.2305 30.7928 27.543 30.6626C27.8815 30.5324 28.194 30.3761 28.4805 30.1938C28.7669 30.0116 29.0469 29.7837 29.3203 29.5103C29.5938 29.2368 29.8216 28.9569 30.0039 28.6704C30.1862 28.384 30.3424 28.0715 30.4727 27.7329C30.6029 27.4204 30.707 27.0721 30.7852 26.688C30.8633 26.3039 30.9154 25.8449 30.9414 25.311C30.9674 24.7772 30.9837 24.2954 30.9902 23.8657C30.9967 23.436 31 22.5441 31 21.1899C31 19.8358 30.9967 18.9438 30.9902 18.5142C30.9837 18.0845 30.9674 17.6027 30.9414 17.0688C30.9154 16.535 30.8633 16.076 30.7852 15.6919C30.707 15.3078 30.6029 14.9595 30.4727 14.647C30.3424 14.3084 30.1862 13.9959 30.0039 13.7095C29.8216 13.423 29.5938 13.1431 29.3203 12.8696C29.0469 12.5962 28.7669 12.3683 28.4805 12.186C28.194 12.0037 27.8815 11.8475 27.543 11.7173C27.2305 11.5871 26.8822 11.4829 26.498 11.4048C26.1139 11.3267 25.6549 11.2746 25.1211 11.2485C24.5872 11.2225 24.1055 11.2062 23.6758 11.1997C23.2461 11.1932 22.3542 11.1899 21 11.1899ZM21 16.0532C20.2969 16.0532 19.6328 16.1899 19.0078 16.4634C18.3828 16.7238 17.8359 17.0884 17.3672 17.5571C16.8984 18.0259 16.5339 18.5728 16.2734 19.1978C16 19.8228 15.8633 20.4868 15.8633 21.1899C15.8633 21.8931 16 22.5571 16.2734 23.1821C16.5339 23.8071 16.8984 24.354 17.3672 24.8228C17.8359 25.2915 18.3828 25.6561 19.0078 25.9165C19.6328 26.1899 20.2969 26.3267 21 26.3267C21.7031 26.3267 22.3672 26.1899 22.9922 25.9165C23.6172 25.6561 24.1641 25.2915 24.6328 24.8228C25.1016 24.354 25.4661 23.8071 25.7266 23.1821C26 22.5571 26.1367 21.8931 26.1367 21.1899C26.1367 20.4868 26 19.8228 25.7266 19.1978C25.4661 18.5728 25.1016 18.0259 24.6328 17.5571C24.1641 17.0884 23.6172 16.7238 22.9922 16.4634C22.3672 16.1899 21.7031 16.0532 21 16.0532ZM21 24.5298C20.0755 24.5298 19.2878 24.2043 18.6367 23.5532C17.9857 22.9022 17.6602 22.1144 17.6602 21.1899C17.6602 20.2655 17.9857 19.4777 18.6367 18.8267C19.2878 18.1756 20.0755 17.8501 21 17.8501C21.9245 17.8501 22.7122 18.1756 23.3633 18.8267C24.0143 19.4777 24.3398 20.2655 24.3398 21.1899C24.3398 22.1144 24.0143 22.9022 23.3633 23.5532C22.7122 24.2043 21.9245 24.5298 21 24.5298ZM27.543 15.8579C27.543 16.1834 27.4258 16.4634 27.1914 16.6978C26.957 16.9321 26.6706 17.0493 26.332 17.0493C26.0065 17.0493 25.7266 16.9321 25.4922 16.6978C25.2578 16.4634 25.1406 16.1834 25.1406 15.8579C25.1406 15.5194 25.2578 15.2329 25.4922 14.9985C25.7266 14.7642 26.0065 14.647 26.332 14.647C26.6706 14.647 26.957 14.7642 27.1914 14.9985C27.4258 15.2329 27.543 15.5194 27.543 15.8579Z" fill="white"/>
</svg>
