<svg width="42" height="42" viewBox="0 0 42 42" fill="none" xmlns="http://www.w3.org/2000/svg">
<mask id="path-1-inside-1_1375_660" fill="white">
<path d="M0 12C0 5.37258 5.37258 0 12 0H30C36.6274 0 42 5.37258 42 12V30C42 36.6274 36.6274 42 30 42H12C5.37258 42 0 36.6274 0 30V12Z"/>
</mask>
<path d="M0 12C0 5.37258 5.37258 0 12 0H30C36.6274 0 42 5.37258 42 12V30C42 36.6274 36.6274 42 30 42H12C5.37258 42 0 36.6274 0 30V12Z" fill="black"/>
<path d="M12 0V1H30V0V-1H12V0ZM42 12H41V30H42H43V12H42ZM30 42V41H12V42V43H30V42ZM0 30H1V12H0H-1V30H0ZM12 42V41C5.92487 41 1 36.0751 1 30H0H-1C-1 37.1797 4.8203 43 12 43V42ZM42 30H41C41 36.0751 36.0751 41 30 41V42V43C37.1797 43 43 37.1797 43 30H42ZM30 0V1C36.0751 1 41 5.92487 41 12H42H43C43 4.8203 37.1797 -1 30 -1V0ZM12 0V-1C4.8203 -1 -1 4.8203 -1 12H0H1C1 5.92487 5.92487 1 12 1V0Z" fill="#00ACED" mask="url(#path-1-inside-1_1375_660)"/>
<path d="M11.0781 11.1899L18.7734 22.2056L11.0391 31.1899H12.7773L19.5547 23.3384L25.0234 31.1899H30.9414L22.8164 19.5493L30.043 11.1899H28.3047L22.0547 18.436L17.0156 11.1899H11.0781ZM13.5391 12.4399H16.293L28.5 29.9399H25.7461L13.5391 12.4399Z" fill="white"/>
</svg>
