<svg width="42" height="42" viewBox="0 0 42 42" fill="none" xmlns="http://www.w3.org/2000/svg">
<mask id="path-1-inside-1_1375_656" fill="white">
<path d="M0 12C0 5.37258 5.37258 0 12 0H30C36.6274 0 42 5.37258 42 12V30C42 36.6274 36.6274 42 30 42H12C5.37258 42 0 36.6274 0 30V12Z"/>
</mask>
<path d="M0 12C0 5.37258 5.37258 0 12 0H30C36.6274 0 42 5.37258 42 12V30C42 36.6274 36.6274 42 30 42H12C5.37258 42 0 36.6274 0 30V12Z" fill="#3B5998"/>
<path d="M12 0V1H30V0V-1H12V0ZM42 12H41V30H42H43V12H42ZM30 42V41H12V42V43H30V42ZM0 30H1V12H0H-1V30H0ZM12 42V41C5.92487 41 1 36.0751 1 30H0H-1C-1 37.1797 4.8203 43 12 43V42ZM42 30H41C41 36.0751 36.0751 41 30 41V42V43C37.1797 43 43 37.1797 43 30H42ZM30 0V1C36.0751 1 41 5.92487 41 12H42H43C43 4.8203 37.1797 -1 30 -1V0ZM12 0V-1C4.8203 -1 -1 4.8203 -1 12H0H1C1 5.92487 5.92487 1 12 1V0Z" fill="#3B5998" mask="url(#path-1-inside-1_1375_656)"/>
<path d="M18.5391 31.1899H22.2891V21.1899H25.6875L26.0586 17.7329H22.2891V16.0142C22.2891 15.5715 22.3542 15.2329 22.4844 14.9985C22.6146 14.7642 22.9987 14.647 23.6367 14.647H26.0195V11.1899H22.6016C20.9479 11.1899 19.8574 11.5936 19.3301 12.4009C18.8027 13.2082 18.5391 14.3149 18.5391 15.7212V17.7329L16.0195 17.7524V21.1899H18.5391V31.1899Z" fill="white"/>
</svg>
