<svg width="64" height="64" viewBox="0 0 64 64" fill="none" xmlns="http://www.w3.org/2000/svg">
<path d="M0 32C0 14.3269 14.3269 0 32 0C49.6731 0 64 14.3269 64 32C64 49.6731 49.6731 64 32 64C14.3269 64 0 49.6731 0 32Z" fill="#1DB954"/>
<path d="M42.1673 33.3333C42.1673 39.9999 37.5007 43.3333 31.954 45.2666C31.6635 45.365 31.348 45.3603 31.0607 45.2533C25.5007 43.3333 20.834 39.9999 20.834 33.3333V23.9999C20.834 23.6463 20.9745 23.3072 21.2245 23.0571C21.4746 22.8071 21.8137 22.6666 22.1673 22.6666C24.834 22.6666 28.1673 21.0666 30.4873 19.0399C30.7698 18.7986 31.1291 18.666 31.5007 18.666C31.8722 18.666 32.2315 18.7986 32.514 19.0399C34.8473 21.0799 38.1673 22.6666 40.834 22.6666C41.1876 22.6666 41.5267 22.8071 41.7768 23.0571C42.0268 23.3072 42.1673 23.6463 42.1673 23.9999V33.3333Z" stroke="white" stroke-width="2.66667" stroke-linecap="round" stroke-linejoin="round"/>
<path d="M27.5 31.9997L30.1667 34.6663L35.5 29.333" stroke="white" stroke-width="2.66667" stroke-linecap="round" stroke-linejoin="round"/>
</svg>
