<svg width="32" height="32" viewBox="0 0 32 32" fill="none" xmlns="http://www.w3.org/2000/svg">
<path d="M26.1673 17.3333C26.1673 23.9999 21.5007 27.3333 15.954 29.2666C15.6635 29.365 15.348 29.3603 15.0607 29.2533C9.50065 27.3333 4.83398 23.9999 4.83398 17.3333V7.99995C4.83398 7.64633 4.97446 7.30719 5.22451 7.05714C5.47456 6.80709 5.8137 6.66662 6.16732 6.66662C8.83398 6.66662 12.1673 5.06662 14.4873 3.03995C14.7698 2.79861 15.1291 2.66602 15.5007 2.66602C15.8722 2.66602 16.2315 2.79861 16.514 3.03995C18.8473 5.07995 22.1673 6.66662 24.834 6.66662C25.1876 6.66662 25.5267 6.80709 25.7768 7.05714C26.0268 7.30719 26.1673 7.64633 26.1673 7.99995V17.3333Z" stroke="white" stroke-width="2.66667" stroke-linecap="round" stroke-linejoin="round"/>
<path d="M11.5 15.9997L14.1667 18.6663L19.5 13.333" stroke="white" stroke-width="2.66667" stroke-linecap="round" stroke-linejoin="round"/>
</svg>
