<svg width="72" height="80" viewBox="0 0 72 80" fill="none" xmlns="http://www.w3.org/2000/svg">
<path d="M51.195 29.6104L54.0934 22.0127C54.6949 22.0127 55.2926 21.8135 55.7926 21.5127C57.2926 20.6143 57.7926 18.6143 56.7926 17.0127C56.2926 16.3135 55.5934 15.7119 54.7926 15.6143C53.9918 15.4151 53.0934 15.5127 52.3942 16.0127C51.8942 16.3135 51.4957 16.8135 51.2926 17.3135L43.1949 16.5128C36.7965 7.61436 28.0969 -1.48324 20.9999 2.91476C20.8983 2.91476 20.8983 3.01632 20.8007 3.01632C20.6014 3.11788 20.3007 3.3171 20.1991 3.41476C6.2031 12.614 2.2031 31.1098 10.9999 45.4068C11.8983 46.8052 12.8983 48.2076 14.0976 49.5045L4.8984 71.1995H4.3984C2 71.1995 0 73.1995 0 75.5979C0.003906 78.0002 2.0039 80.0002 4.4023 80.0002H34.9963C37.3947 80.0002 39.3947 78.0002 39.3947 75.6018C39.3947 73.2034 37.3947 71.2034 34.9963 71.2034H34.4963L29.2971 59.0044C31.8948 59.7036 34.5979 60.2036 37.2971 60.2036C42.6955 60.2036 47.8951 58.8052 52.5941 56.1059C52.9925 56.0043 53.2933 55.8051 53.5941 55.6059H53.6957C57.7934 53.1059 58.3949 47.7075 55.6957 39.7079C54.4965 36.2079 52.8981 32.7084 51.195 29.6104ZM45.0973 42.6064C45.1988 42.708 45.3981 42.708 45.4957 42.708C45.9957 42.708 46.3942 42.4072 46.5973 42.0087L47.8981 38.7079C48.4997 40.0087 48.9997 41.3056 49.3981 42.6063C50.8981 47.3055 50.5973 49.5047 50.0973 49.8055C49.4958 50.1063 47.3981 49.4071 43.8981 46.0047C40.4997 42.6063 36.6989 37.7078 33.1991 32.0087C29.6991 26.411 26.9999 20.7117 25.4999 16.2117C23.9999 11.5125 24.3007 9.31334 24.8007 9.01254C24.9023 9.01254 24.9999 8.91098 25.1015 8.91098C25.9999 8.91098 27.9023 9.91098 30.9023 12.8094C31.8007 13.7078 32.8007 14.7078 33.7031 15.8094L30.1054 15.5086C29.5038 15.407 28.9062 15.907 28.8046 16.5086C28.703 17.1102 29.203 17.7078 29.8046 17.8094L35.6054 18.411C37.4062 20.6102 39.1054 23.2118 40.8046 25.911L36.6054 28.5087C36.1054 28.8094 35.9062 29.5087 36.207 30.1103C36.4062 30.411 36.8085 30.6103 37.207 30.6103C37.4062 30.6103 37.6054 30.5087 37.8085 30.411L42.0077 27.8133C43.7069 30.5125 45.1054 33.2117 46.4061 35.8133L44.3045 41.3133C44.1991 41.7079 44.4957 42.3056 45.0973 42.6064ZM42.8981 24.4114C41.5973 22.3098 40.1989 20.3137 38.8004 18.513L41.8981 18.8138C43.0973 20.513 44.0973 22.013 44.8981 23.2122L42.8981 24.4114ZM44.0973 26.4114L46.0973 25.2122C46.8981 26.513 47.7965 28.013 48.695 29.8099L47.5934 32.7083C46.5973 30.6106 45.3981 28.5091 44.0973 26.4114ZM47.9957 23.9114L51.7965 21.513L49.7965 26.9114C49.1949 25.9114 48.5973 24.9114 47.9957 23.9114ZM50.5973 19.6106L46.7965 22.009C46.1949 21.1106 45.5973 20.1106 44.8981 19.1106L50.5973 19.6106ZM37.0973 75.6026C37.0973 76.8018 36.1988 77.7042 34.9957 77.7042L4.40168 77.7003C3.20248 77.7003 2.30008 76.8019 2.30008 75.5987C2.30008 74.3995 3.19852 73.4971 4.40168 73.4971H35.0967C36.1983 73.501 37.0973 74.501 37.0973 75.6026ZM7.40228 71.2042L18.4023 45.6062C18.7031 44.8054 19.5039 44.7078 19.7031 44.7078C19.9023 44.7078 20.7031 44.8093 21.0039 45.6062L26.2031 57.7042L32.0039 71.2002L7.40228 71.2042ZM28.1993 56.3062L23.1993 44.7082C22.5977 43.3098 21.3009 42.4074 19.6993 42.4074C18.0977 42.4074 16.8985 43.3058 16.1993 44.7082L15.0977 47.3059C14.2969 46.3059 13.4961 45.3059 12.8985 44.3059C5.59768 32.6069 7.69928 17.9109 17.3985 8.6109C17 11.3101 17.5 14.7086 18.8985 18.8099C21.0001 24.9076 24.4962 31.2079 27.1954 35.4079C29.7931 39.6071 33.8946 45.6069 38.4924 50.2049C41.5901 53.3026 44.3908 55.2049 46.9924 56.0057C40.8986 58.3065 34.3013 58.4038 28.1993 56.3062ZM52.3983 53.5054C49.3983 55.4038 45.1991 53.8062 40.1013 48.607C35.5036 44.0093 31.3044 37.607 29.2033 34.209C27.1017 30.8106 23.3049 24.209 21.2033 18.01C18.9025 11.1116 19.2033 6.713 22.3049 4.811C27.5041 1.5102 34.9029 9.2094 40.2029 16.209L36.9021 16.0098C35.4021 14.1114 33.9021 12.4121 32.5037 11.0098C28.5037 7.11138 25.5037 5.70898 23.5037 6.91208C21.6053 8.11128 21.5037 11.4121 23.2029 16.8105C24.7029 21.5097 27.6013 27.3105 31.2029 33.1075C34.8006 38.9083 38.7029 44.0055 42.3009 47.5055C45.3986 50.5055 47.8986 52.0055 49.8009 52.0055C50.4025 52.0055 50.9025 51.9039 51.3009 51.607C53.1993 50.4078 53.3009 47.107 51.6017 41.7086C51.0001 39.8102 50.1017 37.7086 49.1017 35.5094L50.2033 32.5094C51.5041 35.0094 52.7033 37.7086 53.6017 40.4078C55.797 47.2086 55.4959 51.6064 52.3983 53.5054ZM52.4959 9.2124C51.8944 9.11084 51.2967 9.61084 51.1951 10.2124C51.0936 10.814 51.5936 11.4116 52.1951 11.5132C54.4959 11.814 56.9959 13.5132 58.5935 16.1109C60.1951 18.7086 60.6951 21.6109 59.8943 23.8101C59.6951 24.4117 59.9959 25.1109 60.5936 25.3101C60.6951 25.3101 60.8943 25.4117 60.992 25.4117C61.492 25.4117 61.8904 25.1109 62.0936 24.6109C63.0936 21.7125 62.5936 18.0132 60.5936 14.9117C58.5936 11.7125 55.4959 9.5132 52.4959 9.2124ZM68.3939 10.0132C64.8939 4.41548 59.3939 0.716277 53.4959 0.0131774C52.8944 -0.0883826 52.2967 0.411617 52.1951 1.01318C52.0936 1.61474 52.5936 2.21238 53.1951 2.31398C58.3943 2.91554 63.2931 6.21238 66.3941 11.2124C69.4918 16.2124 70.2925 22.1104 68.4957 26.9114C68.2965 27.5129 68.5973 28.2122 69.195 28.4114C69.2965 28.4114 69.4957 28.5129 69.5934 28.5129C70.0934 28.5129 70.4918 28.2122 70.695 27.7122C72.695 22.2122 71.7924 15.5132 68.3939 10.0132ZM52.9959 4.61478C52.3944 4.51322 51.7967 5.01322 51.6951 5.61478C51.5936 6.21634 52.0936 6.81398 52.6951 6.91558C56.4959 7.31402 60.0935 9.81398 62.492 13.6148C64.7928 17.4156 65.492 21.814 64.1912 25.3138C63.992 25.9153 64.2928 26.6146 64.8904 26.8138C64.992 26.8138 65.1912 26.9153 65.2889 26.9153C65.7889 26.9153 66.1873 26.6146 66.3905 26.1146C67.8905 21.9154 67.1913 16.7162 64.4921 12.4156C61.6952 8.01326 57.3942 5.11478 52.9959 4.61478Z" fill="black"/>
</svg>
