<svg width="32" height="32" viewBox="0 0 32 32" fill="none" xmlns="http://www.w3.org/2000/svg">
<path d="M25.5013 14.667H6.83464C5.36188 14.667 4.16797 15.8609 4.16797 17.3337V26.667C4.16797 28.1398 5.36188 29.3337 6.83464 29.3337H25.5013C26.9741 29.3337 28.168 28.1398 28.168 26.667V17.3337C28.168 15.8609 26.9741 14.667 25.5013 14.667Z" stroke="white" stroke-width="2.66667" stroke-linecap="round" stroke-linejoin="round"/>
<path d="M9.50195 14.666V9.33268C9.50195 7.56457 10.2043 5.86888 11.4546 4.61864C12.7048 3.36839 14.4005 2.66602 16.1686 2.66602C17.9367 2.66602 19.6324 3.36839 20.8827 4.61864C22.1329 5.86888 22.8353 7.56457 22.8353 9.33268V14.666" stroke="white" stroke-width="2.66667" stroke-linecap="round" stroke-linejoin="round"/>
</svg>
