<svg width="64" height="64" viewBox="0 0 64 64" fill="none" xmlns="http://www.w3.org/2000/svg">
<path d="M0 32C0 14.3269 14.3269 0 32 0C49.6731 0 64 14.3269 64 32C64 49.6731 49.6731 64 32 64C14.3269 64 0 49.6731 0 32Z" fill="#1DB954"/>
<path d="M41.5013 30.667H22.8346C21.3619 30.667 20.168 31.8609 20.168 33.3337V42.667C20.168 44.1398 21.3619 45.3337 22.8346 45.3337H41.5013C42.9741 45.3337 44.168 44.1398 44.168 42.667V33.3337C44.168 31.8609 42.9741 30.667 41.5013 30.667Z" stroke="white" stroke-width="2.66667" stroke-linecap="round" stroke-linejoin="round"/>
<path d="M25.502 30.666V25.3327C25.502 23.5646 26.2043 21.8689 27.4546 20.6186C28.7048 19.3684 30.4005 18.666 32.1686 18.666C33.9367 18.666 35.6324 19.3684 36.8827 20.6186C38.1329 21.8689 38.8353 23.5646 38.8353 25.3327V30.666" stroke="white" stroke-width="2.66667" stroke-linecap="round" stroke-linejoin="round"/>
</svg>
