<svg width="32" height="32" viewBox="0 0 32 32" fill="none" xmlns="http://www.w3.org/2000/svg">
<rect width="32" height="32" rx="6" fill="#0070CE"/>
<path d="M16 13V25" stroke="white" stroke-width="1.5" stroke-linecap="round" stroke-linejoin="round"/>
<path d="M19.54 9.83008C20.4774 10.7677 21.004 12.0393 21.004 13.3651C21.004 14.6909 20.4774 15.9624 19.54 16.9001" stroke="white" stroke-width="1.5" stroke-linecap="round" stroke-linejoin="round"/>
<path d="M12.46 16.9001C11.5227 15.9624 10.9961 14.6909 10.9961 13.3651C10.9961 12.0393 11.5227 10.7677 12.46 9.83008" stroke="white" stroke-width="1.5" stroke-linecap="round" stroke-linejoin="round"/>
<path d="M22.3604 7C23.1964 7.83577 23.8596 8.82805 24.3121 9.92017C24.7645 11.0123 24.9974 12.1829 24.9974 13.365C24.9974 14.5471 24.7645 15.7177 24.3121 16.8098C23.8596 17.902 23.1964 18.8942 22.3604 19.73" stroke="white" stroke-width="1.5" stroke-linecap="round" stroke-linejoin="round"/>
<path d="M9.64001 19.73C8.80397 18.8942 8.14077 17.902 7.6883 16.8098C7.23582 15.7177 7.00293 14.5471 7.00293 13.365C7.00293 12.1829 7.23582 11.0123 7.6883 9.92017C8.14077 8.82805 8.80397 7.83577 9.64001 7" stroke="white" stroke-width="1.5" stroke-linecap="round" stroke-linejoin="round"/>
<path d="M15.9502 13.3601H16.0502" stroke="white" stroke-width="1.5" stroke-linecap="round" stroke-linejoin="round"/>
</svg>
