<svg width="40" height="40" viewBox="0 0 40 40" fill="none" xmlns="http://www.w3.org/2000/svg">
<path d="M0 10C0 4.47715 4.47715 0 10 0H30C35.5228 0 40 4.47715 40 10V30C40 35.5228 35.5228 40 30 40H10C4.47715 40 0 35.5228 0 30V10Z" fill="#1D293D"/>
<path d="M16.9077 26.8756C23.1968 26.8756 26.6368 21.6647 26.6368 17.1464C26.6368 16.9981 26.6368 16.8506 26.6268 16.7047C27.2962 16.2202 27.8738 15.6202 28.3327 14.9331C27.7086 15.2097 27.0465 15.3912 26.3685 15.4714C27.0824 15.0439 27.6166 14.3717 27.8718 13.5797C27.2008 13.978 26.4666 14.2587 25.701 14.4097C25.1855 13.8612 24.5035 13.4979 23.7607 13.3761C23.0179 13.2544 22.2556 13.3809 21.5919 13.7361C20.9283 14.0913 20.4002 14.6554 20.0896 15.3411C19.7789 16.0268 19.703 16.7957 19.8735 17.5289C18.514 17.4608 17.184 17.1075 15.9699 16.492C14.7558 15.8766 13.6846 15.0127 12.826 13.9564C12.3888 14.7091 12.2548 15.6001 12.4515 16.448C12.6481 17.296 13.1605 18.0371 13.8843 18.5206C13.3404 18.5048 12.8082 18.3585 12.3327 18.0939V18.1372C12.333 18.9266 12.6063 19.6916 13.1063 20.3025C13.6063 20.9134 14.3022 21.3325 15.076 21.4889C14.5725 21.6261 14.0443 21.6461 13.5318 21.5472C13.7503 22.2268 14.1757 22.8211 14.7486 23.2469C15.3215 23.6727 16.0132 23.9089 16.7268 23.9222C16.0178 24.4794 15.2058 24.8912 14.3375 25.1343C13.4691 25.3774 12.5613 25.4469 11.666 25.3389C13.2299 26.3425 15.0495 26.8748 16.9077 26.8722" fill="white"/>
</svg>
