<svg width="20" height="20" viewBox="0 0 20 20" fill="none" xmlns="http://www.w3.org/2000/svg">
<path d="M6.90768 16.8756C13.1968 16.8756 16.6368 11.6647 16.6368 7.14639C16.6368 6.99805 16.6368 6.85055 16.6268 6.70472C17.2962 6.22016 17.8738 5.62023 18.3327 4.93305C17.7086 5.20972 17.0465 5.39119 16.3685 5.47139C17.0824 5.04394 17.6166 4.37168 17.8718 3.57972C17.2008 3.97796 16.4666 4.25866 15.701 4.40972C15.1855 3.86119 14.5035 3.49792 13.7607 3.37614C13.0179 3.25437 12.2556 3.38089 11.5919 3.73611C10.9283 4.09134 10.4002 4.65545 10.0896 5.3411C9.77893 6.02676 9.70299 6.79571 9.87352 7.52889C8.51401 7.46075 7.18402 7.10749 5.96989 6.49203C4.75576 5.87656 3.68462 5.01266 2.82602 3.95639C2.38878 4.70906 2.25484 5.60007 2.45146 6.44802C2.64808 7.29598 3.16049 8.03712 3.88435 8.52055C3.3404 8.50481 2.80821 8.35847 2.33268 8.09389V8.13722C2.33301 8.92663 2.60634 9.69164 3.10635 10.3025C3.60635 10.9134 4.30224 11.3325 5.07602 11.4889C4.57253 11.6261 4.04426 11.6461 3.53185 11.5472C3.75032 12.2268 4.17575 12.8211 4.74862 13.2469C5.3215 13.6727 6.01316 13.9089 6.72685 13.9222C6.01778 14.4794 5.20584 14.8912 4.33745 15.1343C3.46907 15.3774 2.56128 15.4469 1.66602 15.3389C3.22985 16.3425 5.04951 16.8748 6.90768 16.8722" fill="white"/>
</svg>
