<svg width="40" height="40" viewBox="0 0 40 40" fill="none" xmlns="http://www.w3.org/2000/svg">
<path d="M0 10C0 4.47715 4.47715 0 10 0H30C35.5228 0 40 4.47715 40 10V30C40 35.5228 35.5228 40 30 40H10C4.47715 40 0 35.5228 0 30V10Z" fill="#1D293D"/>
<path d="M29.9684 14.5175C29.8801 14.1719 29.7109 13.8522 29.4747 13.5849C29.2385 13.3176 28.9421 13.1102 28.61 12.98C25.3962 11.7388 20.2812 11.75 20 11.75C19.7188 11.75 14.6037 11.7388 11.39 12.98C11.0579 13.1102 10.7615 13.3176 10.5253 13.5849C10.2891 13.8522 10.1199 14.1719 10.0316 14.5175C9.78875 15.4531 9.5 17.1631 9.5 20C9.5 22.8369 9.78875 24.5469 10.0316 25.4825C10.1198 25.8283 10.289 26.1481 10.5252 26.4156C10.7614 26.6831 11.0578 26.8906 11.39 27.0209C14.4688 28.2088 19.2875 28.25 19.9381 28.25H20.0619C20.7125 28.25 25.5341 28.2088 28.61 27.0209C28.9422 26.8906 29.2386 26.6831 29.4748 26.4156C29.711 26.1481 29.8802 25.8283 29.9684 25.4825C30.2113 24.545 30.5 22.8369 30.5 20C30.5 17.1631 30.2113 15.4531 29.9684 14.5175ZM23.0553 20.6113L19.3053 23.2363C19.1931 23.3148 19.0616 23.3612 18.9249 23.3703C18.7883 23.3794 18.6517 23.351 18.5301 23.288C18.4085 23.225 18.3064 23.1299 18.235 23.013C18.1636 22.8962 18.1256 22.762 18.125 22.625V17.375C18.125 17.2378 18.1627 17.1032 18.2339 16.986C18.3051 16.8687 18.4071 16.7732 18.5289 16.7099C18.6506 16.6465 18.7873 16.6178 18.9242 16.6268C19.0611 16.6358 19.1929 16.6822 19.3053 16.7609L23.0553 19.3859C23.154 19.4551 23.2345 19.547 23.2901 19.6539C23.3457 19.7608 23.3747 19.8795 23.3747 20C23.3747 20.1205 23.3457 20.2392 23.2901 20.3461C23.2345 20.453 23.154 20.5449 23.0553 20.6141V20.6113Z" fill="white"/>
</svg>
