<svg width="40" height="40" viewBox="0 0 40 40" fill="none" xmlns="http://www.w3.org/2000/svg">
<path d="M3.33398 13.333L6.66732 16.6663L3.33398 19.9997L6.66732 23.333L3.33398 26.6663" stroke="url(#paint0_linear_840_1025)" stroke-width="3" stroke-linecap="round" stroke-linejoin="round"/>
<path d="M36.6673 13.333L33.334 16.6663L36.6673 19.9997L33.334 23.333L36.6673 26.6663" stroke="url(#paint1_linear_840_1025)" stroke-width="3" stroke-linecap="round" stroke-linejoin="round"/>
<path d="M25.0007 8.33301H15.0007C14.0802 8.33301 13.334 9.0792 13.334 9.99967V29.9997C13.334 30.9202 14.0802 31.6663 15.0007 31.6663H25.0007C25.9211 31.6663 26.6673 30.9202 26.6673 29.9997V9.99967C26.6673 9.0792 25.9211 8.33301 25.0007 8.33301Z" stroke="url(#paint2_linear_840_1025)" stroke-width="3" stroke-linecap="round" stroke-linejoin="round"/>
<defs>
<linearGradient id="paint0_linear_840_1025" x1="5.00065" y1="13.333" x2="5.00065" y2="26.6663" gradientUnits="userSpaceOnUse">
<stop stop-color="#0070CE"/>
<stop offset="0.5" stop-color="#E5F3FF"/>
</linearGradient>
<linearGradient id="paint1_linear_840_1025" x1="35.0007" y1="13.333" x2="35.0007" y2="26.6663" gradientUnits="userSpaceOnUse">
<stop stop-color="#0070CE"/>
<stop offset="0.5" stop-color="#E5F3FF"/>
</linearGradient>
<linearGradient id="paint2_linear_840_1025" x1="20.0007" y1="8.33301" x2="20.0007" y2="31.6663" gradientUnits="userSpaceOnUse">
<stop stop-color="#0070CE"/>
<stop offset="0.5" stop-color="#E5F3FF"/>
</linearGradient>
</defs>
</svg>
