<svg width="40" height="40" viewBox="0 0 40 40" fill="none" xmlns="http://www.w3.org/2000/svg">
<path d="M8.16602 26.8337C1.66602 20.3337 1.66602 9.66699 8.16602 3.16699" stroke="url(#paint0_linear_840_1033)" stroke-width="3" stroke-linecap="round" stroke-linejoin="round"/>
<path d="M13.0009 7.83301C11.4197 9.4713 10.4301 11.5901 10.1886 13.8541C9.9471 16.1182 10.4675 18.3981 11.6676 20.333" stroke="url(#paint1_linear_840_1033)" stroke-width="3" stroke-linecap="round" stroke-linejoin="round"/>
<path d="M19.9993 18.3337C21.8403 18.3337 23.3327 16.8413 23.3327 15.0003C23.3327 13.1594 21.8403 11.667 19.9993 11.667C18.1584 11.667 16.666 13.1594 16.666 15.0003C16.666 16.8413 18.1584 18.3337 19.9993 18.3337Z" stroke="url(#paint2_linear_840_1033)" stroke-width="3" stroke-linecap="round" stroke-linejoin="round"/>
<path d="M27 8C30.3333 11.3333 30.7667 16.5167 28.3333 20.45" stroke="url(#paint3_linear_840_1033)" stroke-width="3" stroke-linecap="round" stroke-linejoin="round"/>
<path d="M31.834 3.16699C33.379 4.70889 34.6048 6.54036 35.4412 8.55659C36.2776 10.5728 36.7081 12.7342 36.7081 14.917C36.7081 17.0998 36.2776 19.2612 35.4412 21.2774C34.6048 23.2936 33.379 25.1251 31.834 26.667" stroke="url(#paint4_linear_840_1033)" stroke-width="3" stroke-linecap="round" stroke-linejoin="round"/>
<path d="M15.834 30H24.1673" stroke="url(#paint5_linear_840_1033)" stroke-width="3" stroke-linecap="round" stroke-linejoin="round"/>
<path d="M13.334 36.6663L20.0007 18.333L26.6673 36.6663" stroke="url(#paint6_linear_840_1033)" stroke-width="3" stroke-linecap="round" stroke-linejoin="round"/>
<defs>
<linearGradient id="paint0_linear_840_1033" x1="5.72852" y1="3.16699" x2="5.72852" y2="26.8337" gradientUnits="userSpaceOnUse">
<stop stop-color="#0070CE"/>
<stop offset="0.5" stop-color="#E5F3FF"/>
</linearGradient>
<linearGradient id="paint1_linear_840_1033" x1="11.5659" y1="7.83301" x2="11.5659" y2="20.333" gradientUnits="userSpaceOnUse">
<stop stop-color="#0070CE"/>
<stop offset="0.5" stop-color="#E5F3FF"/>
</linearGradient>
<linearGradient id="paint2_linear_840_1033" x1="19.9993" y1="11.667" x2="19.9993" y2="18.3337" gradientUnits="userSpaceOnUse">
<stop stop-color="#0070CE"/>
<stop offset="0.5" stop-color="#E5F3FF"/>
</linearGradient>
<linearGradient id="paint3_linear_840_1033" x1="28.44" y1="8" x2="28.44" y2="20.45" gradientUnits="userSpaceOnUse">
<stop stop-color="#0070CE"/>
<stop offset="0.5" stop-color="#E5F3FF"/>
</linearGradient>
<linearGradient id="paint4_linear_840_1033" x1="34.271" y1="3.16699" x2="34.271" y2="26.667" gradientUnits="userSpaceOnUse">
<stop stop-color="#0070CE"/>
<stop offset="0.5" stop-color="#E5F3FF"/>
</linearGradient>
<linearGradient id="paint5_linear_840_1033" x1="20.0007" y1="30" x2="20.0007" y2="31" gradientUnits="userSpaceOnUse">
<stop stop-color="#0070CE"/>
<stop offset="0.5" stop-color="#E5F3FF"/>
</linearGradient>
<linearGradient id="paint6_linear_840_1033" x1="20.0007" y1="18.333" x2="20.0007" y2="36.6663" gradientUnits="userSpaceOnUse">
<stop stop-color="#0070CE"/>
<stop offset="0.5" stop-color="#E5F3FF"/>
</linearGradient>
</defs>
</svg>
