<svg width="40" height="40" viewBox="0 0 40 40" fill="none" xmlns="http://www.w3.org/2000/svg">
<path d="M28.334 3.33301H11.6673C9.82637 3.33301 8.33398 4.82539 8.33398 6.66634V13.333C8.33398 15.174 9.82637 16.6663 11.6673 16.6663H28.334C30.1749 16.6663 31.6673 15.174 31.6673 13.333V6.66634C31.6673 4.82539 30.1749 3.33301 28.334 3.33301Z" stroke="url(#paint0_linear_840_1055)" stroke-width="3" stroke-linecap="round" stroke-linejoin="round"/>
<path d="M33.334 23.333H6.66732C4.82637 23.333 3.33398 24.8254 3.33398 26.6663V33.333C3.33398 35.174 4.82637 36.6663 6.66732 36.6663H33.334C35.1749 36.6663 36.6673 35.174 36.6673 33.333V26.6663C36.6673 24.8254 35.1749 23.333 33.334 23.333Z" stroke="url(#paint1_linear_840_1055)" stroke-width="3" stroke-linecap="round" stroke-linejoin="round"/>
<path d="M10 30H13.3333" stroke="url(#paint2_linear_840_1055)" stroke-width="3" stroke-linecap="round" stroke-linejoin="round"/>
<path d="M20 30H30" stroke="url(#paint3_linear_840_1055)" stroke-width="3" stroke-linecap="round" stroke-linejoin="round"/>
<defs>
<linearGradient id="paint0_linear_840_1055" x1="20.0007" y1="3.33301" x2="20.0007" y2="16.6663" gradientUnits="userSpaceOnUse">
<stop stop-color="#0070CE"/>
<stop offset="0.5" stop-color="#E5F3FF"/>
</linearGradient>
<linearGradient id="paint1_linear_840_1055" x1="20.0007" y1="23.333" x2="20.0007" y2="36.6663" gradientUnits="userSpaceOnUse">
<stop stop-color="#0070CE"/>
<stop offset="0.5" stop-color="#E5F3FF"/>
</linearGradient>
<linearGradient id="paint2_linear_840_1055" x1="11.6667" y1="30" x2="11.6667" y2="31" gradientUnits="userSpaceOnUse">
<stop stop-color="#0070CE"/>
<stop offset="1" stop-color="#0070CE"/>
</linearGradient>
<linearGradient id="paint3_linear_840_1055" x1="25" y1="30" x2="25" y2="31" gradientUnits="userSpaceOnUse">
<stop stop-color="#0070CE"/>
<stop offset="1" stop-color="#0070CE"/>
</linearGradient>
</defs>
</svg>
